<svg width="54" height="54" viewBox="0 0 54 54" fill="none" xmlns="http://www.w3.org/2000/svg">
<g filter="url(#filter0_b_121_1006)">
<mask id="path-1-inside-1_121_1006" fill="white">
<path d="M0 27C0 12.0883 12.0883 0 27 0C41.9117 0 54 12.0883 54 27C54 41.9117 41.9117 54 27 54C12.0883 54 0 41.9117 0 27Z"/>
</mask>
<path d="M0 27C0 12.0883 12.0883 0 27 0C41.9117 0 54 12.0883 54 27C54 41.9117 41.9117 54 27 54C12.0883 54 0 41.9117 0 27Z" fill="url(#paint0_linear_121_1006)" fill-opacity="0.1"/>
<path d="M27 53C12.6406 53 1 41.3594 1 27H-1C-1 42.464 11.536 55 27 55V53ZM53 27C53 41.3594 41.3594 53 27 53V55C42.464 55 55 42.464 55 27H53ZM27 1C41.3594 1 53 12.6406 53 27H55C55 11.536 42.464 -1 27 -1V1ZM27 -1C11.536 -1 -1 11.536 -1 27H1C1 12.6406 12.6406 1 27 1V-1Z" fill="url(#paint1_linear_121_1006)" mask="url(#path-1-inside-1_121_1006)"/>
</g>
<path d="M35 27H19M19 27L25 21M19 27L25 33" stroke="white" stroke-width="1.5" stroke-linecap="round" stroke-linejoin="round"/>
<defs>
<filter id="filter0_b_121_1006" x="-18.8" y="-18.8" width="91.6" height="91.6" filterUnits="userSpaceOnUse" color-interpolation-filters="sRGB">
<feFlood flood-opacity="0" result="BackgroundImageFix"/>
<feGaussianBlur in="BackgroundImageFix" stdDeviation="9.4"/>
<feComposite in2="SourceAlpha" operator="in" result="effect1_backgroundBlur_121_1006"/>
<feBlend mode="normal" in="SourceGraphic" in2="effect1_backgroundBlur_121_1006" result="shape"/>
</filter>
<linearGradient id="paint0_linear_121_1006" x1="126.395" y1="143.157" x2="-1.61384" y2="-1.46098" gradientUnits="userSpaceOnUse">
<stop stop-color="white"/>
<stop offset="1" stop-color="white" stop-opacity="0"/>
</linearGradient>
<linearGradient id="paint1_linear_121_1006" x1="0.726923" y1="0.80198" x2="64.6846" y2="22.4869" gradientUnits="userSpaceOnUse">
<stop stop-color="white" stop-opacity="0.07"/>
<stop offset="0.637982" stop-color="#D8D8D8" stop-opacity="0.42"/>
<stop offset="1" stop-color="#999999" stop-opacity="0"/>
</linearGradient>
</defs>
</svg>
