<svg width="16" height="17" viewBox="0 0 16 17" fill="none" xmlns="http://www.w3.org/2000/svg">
<path d="M8.76065 15.0714L9.27698 15.377L8.76065 15.0714ZM9.14012 14.4303L8.62379 14.1247L9.14012 14.4303ZM6.85984 14.4303L6.34351 14.7359L6.34351 14.7359L6.85984 14.4303ZM7.23931 15.0714L7.75564 14.7658L7.23931 15.0714ZM1.26642 11.2394L1.82075 11.0098H1.82075L1.26642 11.2394ZM5.0527 13.394L5.04236 13.9939L5.0527 13.394ZM3.16061 13.1336L2.93099 13.6879L2.931 13.6879L3.16061 13.1336ZM14.7336 11.2394L15.2879 11.469L15.2879 11.469L14.7336 11.2394ZM10.9473 13.394L10.9369 12.7941L10.9473 13.394ZM12.8394 13.1336L13.069 13.6879H13.069L12.8394 13.1336ZM13.3287 2.01576L13.0152 2.52734L13.3287 2.01576ZM14.4842 3.17125L14.9958 2.85775V2.85775L14.4842 3.17125ZM2.67125 2.01576L2.35775 1.50417V1.50417L2.67125 2.01576ZM1.51576 3.17125L1.00417 2.85775H1.00417L1.51576 3.17125ZM6.18195 13.5469L6.48361 13.0282L6.4836 13.0282L6.18195 13.5469ZM9.27698 15.377L9.65645 14.7359L8.62379 14.1247L8.24432 14.7658L9.27698 15.377ZM6.34351 14.7359L6.72298 15.377L7.75564 14.7658L7.37617 14.1247L6.34351 14.7359ZM8.24432 14.7658C8.13843 14.9447 7.86153 14.9447 7.75564 14.7658L6.72297 15.377C7.29352 16.3409 8.70644 16.3409 9.27698 15.377L8.24432 14.7658ZM6.94999 2.1H9.04999V0.9H6.94999V2.1ZM14.4 7.44999V8.14999H15.6V7.44999H14.4ZM1.6 8.14999V7.44999H0.4V8.14999H1.6ZM0.4 8.14999C0.4 8.95718 0.399675 9.59262 0.434694 10.1059C0.470081 10.6245 0.543553 11.0621 0.712094 11.469L1.82075 11.0098C1.72287 10.7735 1.66313 10.4817 1.63191 10.0242C1.60032 9.56126 1.6 8.9736 1.6 8.14999H0.4ZM5.06304 12.7941C4.18422 12.779 3.73669 12.7228 3.39021 12.5792L2.931 13.6879C3.50894 13.9273 4.16368 13.9788 5.04236 13.9939L5.06304 12.7941ZM0.712094 11.469C1.12822 12.4736 1.92638 13.2718 2.93099 13.6879L3.39022 12.5792C2.67964 12.2849 2.11508 11.7204 1.82075 11.0098L0.712094 11.469ZM14.4 8.14999C14.4 8.9736 14.3997 9.56126 14.3681 10.0242C14.3369 10.4817 14.2771 10.7735 14.1792 11.0098L15.2879 11.469C15.4564 11.0621 15.5299 10.6245 15.5653 10.1059C15.6003 9.59262 15.6 8.95718 15.6 8.14999H14.4ZM10.9576 13.9939C11.8363 13.9788 12.491 13.9273 13.069 13.6879L12.6098 12.5792C12.2633 12.7228 11.8157 12.779 10.9369 12.7941L10.9576 13.9939ZM14.1792 11.0098C13.8849 11.7204 13.3203 12.2849 12.6098 12.5792L13.069 13.6879C14.0736 13.2718 14.8718 12.4736 15.2879 11.469L14.1792 11.0098ZM9.04999 2.1C10.2073 2.1 11.0332 2.10063 11.6762 2.16178C12.3104 2.22207 12.7045 2.33694 13.0152 2.52734L13.6422 1.50417C13.1113 1.17881 12.5118 1.03581 11.7898 0.967164C11.0768 0.899367 10.1841 0.9 9.04999 0.9V2.1ZM15.6 7.44999C15.6 6.31591 15.6006 5.42322 15.5328 4.71017C15.4642 3.9882 15.3212 3.38869 14.9958 2.85775L13.9726 3.48475C14.163 3.79546 14.2779 4.18962 14.3382 4.82376C14.3994 5.46682 14.4 6.29268 14.4 7.44999H15.6ZM13.0152 2.52734C13.4054 2.76646 13.7335 3.09454 13.9726 3.48475L14.9958 2.85775C14.6577 2.30608 14.1939 1.84224 13.6422 1.50417L13.0152 2.52734ZM6.94999 0.9C5.81591 0.9 4.92322 0.899367 4.21017 0.967164C3.4882 1.03581 2.88869 1.17881 2.35775 1.50417L2.98475 2.52734C3.29545 2.33694 3.68962 2.22207 4.32376 2.16178C4.96682 2.10063 5.79268 2.1 6.94999 2.1V0.9ZM1.6 7.44999C1.6 6.29268 1.60063 5.46682 1.66178 4.82376C1.72207 4.18962 1.83694 3.79546 2.02734 3.48475L1.00417 2.85775C0.678815 3.38869 0.535809 3.9882 0.467164 4.71017C0.399367 5.42322 0.4 6.31591 0.4 7.44999H1.6ZM2.35775 1.50417C1.80608 1.84224 1.34224 2.30608 1.00417 2.85775L2.02734 3.48475C2.26646 3.09454 2.59454 2.76646 2.98475 2.52734L2.35775 1.50417ZM7.37617 14.1247C7.23477 13.8858 7.10795 13.6703 6.98405 13.5003C6.85276 13.3201 6.69895 13.1535 6.48361 13.0282L5.88029 14.0655C5.90133 14.0778 5.93931 14.1042 6.01428 14.2071C6.09664 14.32 6.19057 14.4775 6.34351 14.7359L7.37617 14.1247ZM5.04236 13.9939C5.35112 13.9992 5.54173 14.0031 5.68586 14.0191C5.81886 14.0338 5.86123 14.0544 5.88029 14.0655L6.4836 13.0282C6.26628 12.9018 6.04164 12.8511 5.81793 12.8264C5.60534 12.8028 5.34952 12.799 5.06304 12.7941L5.04236 13.9939ZM9.65645 14.7359C9.80938 14.4775 9.90332 14.32 9.98567 14.2071C10.0606 14.1042 10.0986 14.0778 10.1197 14.0655L9.51635 13.0282C9.301 13.1535 9.1472 13.3201 9.01591 13.5003C8.892 13.6703 8.76519 13.8858 8.62379 14.1247L9.65645 14.7359ZM10.9369 12.7941C10.6504 12.799 10.3946 12.8028 10.182 12.8264C9.95831 12.8511 9.73367 12.9018 9.51635 13.0282L10.1197 14.0655C10.1387 14.0544 10.1811 14.0338 10.3141 14.0191C10.4582 14.0031 10.6488 13.9992 10.9576 13.9939L10.9369 12.7941Z" fill="#F8F8F8"/>
<path d="M5.19995 6.40002H10.7999" stroke="#F8F8F8" stroke-width="1.2" stroke-linecap="round"/>
<path d="M5.19995 8.84998H9.04995" stroke="#F8F8F8" stroke-width="1.2" stroke-linecap="round"/>
</svg>
