<svg width="66" height="75" viewBox="0 0 66 75" fill="none" xmlns="http://www.w3.org/2000/svg">
<path d="M30.3568 1.73879C32.0544 0.753736 34.1459 0.753736 35.8435 1.73879L62.457 17.1816C64.1546 18.1667 65.2 19.9871 65.2 21.9573V52.8429C65.2 54.813 64.1546 56.6335 62.457 57.6185L35.8435 73.0614C34.1459 74.0462 32.0544 74.0462 30.3568 73.0614L3.74335 57.6185C2.04576 56.6335 1 54.813 1 52.8429V21.9573C1 19.9871 2.04576 18.1667 3.74335 17.1816L30.3568 1.73879Z" stroke="url(#paint0_linear_568_3228)" stroke-opacity="0.2"/>
<path opacity="0.7" d="M30.6637 8.45302C32.3438 7.47562 34.4139 7.47562 36.0941 8.45302L56.9019 20.5572C58.5821 21.5346 59.6171 23.3409 59.6171 25.2958V49.5042C59.6171 51.459 58.5821 53.2653 56.9019 54.2427L36.0941 66.3469C34.4139 67.3243 32.3438 67.3243 30.6637 66.3469L9.85586 54.2427C8.17567 53.2653 7.14062 51.459 7.14062 49.5042V25.2958C7.14062 23.3409 8.17567 21.5346 9.85586 20.5572L30.6637 8.45302Z" fill="#121212" stroke="url(#paint1_linear_568_3228)"/>
<path d="M30.5444 14.0063C32.1258 13.0913 34.0742 13.0913 35.6556 14.0063L52.0374 23.4852C53.6188 24.4002 54.593 26.0912 54.593 27.9213V46.8788C54.593 48.7089 53.6188 50.4 52.0374 51.315L35.6556 60.7938C34.0742 61.7088 32.1258 61.7088 30.5444 60.7938L14.1625 51.315C12.5811 50.4 11.6069 48.7089 11.6069 46.8788V27.9213C11.6069 26.0912 12.5811 24.4002 14.1625 23.4852L30.5444 14.0063Z" fill="url(#paint2_linear_568_3228)" fill-opacity="0.06" stroke="url(#paint3_linear_568_3228)" stroke-width="2"/>
<path fill-rule="evenodd" clip-rule="evenodd" d="M33.379 29.5599C34.2674 29.5599 35.1193 29.9139 35.7475 30.544C36.3757 31.1741 36.7286 32.0288 36.7286 32.9199C36.7286 33.811 36.3757 34.6656 35.7475 35.2958C35.1193 35.9259 34.2674 36.2799 33.379 36.2799C32.4906 36.2799 31.6387 35.9259 31.0105 35.2958C30.3823 34.6656 30.0294 33.811 30.0294 32.9199C30.0294 32.0288 30.3823 31.1741 31.0105 30.544C31.6387 29.9139 32.4906 29.5599 33.379 29.5599ZM38.4034 32.9199C38.4034 31.5832 37.874 30.3012 36.9318 29.3561C35.9895 28.4109 34.7115 27.8799 33.379 27.8799C32.0465 27.8799 30.7685 28.4109 29.8263 29.3561C28.884 30.3012 28.3547 31.5832 28.3547 32.9199C28.3547 34.2566 28.884 35.5385 29.8263 36.4837C30.7685 37.4289 32.0465 37.9599 33.379 37.9599C34.7115 37.9599 35.9895 37.4289 36.9318 36.4837C37.874 35.5385 38.4034 34.2566 38.4034 32.9199ZM38.5599 40.1582C37.195 39.3014 35.3611 38.7999 33.379 38.7999C31.3969 38.7999 29.563 39.3022 28.1981 40.1582C26.8448 41.0066 25.8425 42.2859 25.8425 43.8399C25.8425 44.0627 25.9307 44.2763 26.0877 44.4339C26.2448 44.5914 26.4578 44.6799 26.6799 44.6799C26.902 44.6799 27.115 44.5914 27.272 44.4339C27.429 44.2763 27.5173 44.0627 27.5173 43.8399C27.5173 43.0746 28.0147 42.254 29.0857 41.582C30.145 40.9192 31.6607 40.4799 33.379 40.4799C35.0973 40.4799 36.613 40.9184 37.6723 41.5828C38.7442 42.2531 39.2407 43.0738 39.2407 43.8399C39.2407 44.0627 39.329 44.2763 39.486 44.4339C39.6431 44.5914 39.856 44.6799 40.0781 44.6799C40.3002 44.6799 40.5132 44.5914 40.6703 44.4339C40.8273 44.2763 40.9155 44.0627 40.9155 43.8399C40.9155 42.2859 39.9132 41.0066 38.5599 40.1582Z" fill="url(#paint4_linear_568_3228)"/>
<path fill-rule="evenodd" clip-rule="evenodd" d="M44.2933 35.104C44.8559 35.104 45.3955 35.3282 45.7933 35.7273C46.1912 36.1264 46.4147 36.6677 46.4147 37.232C46.4147 37.7964 46.1912 38.3377 45.7933 38.7368C45.3955 39.1358 44.8559 39.36 44.2933 39.36C43.7306 39.36 43.1911 39.1358 42.7932 38.7368C42.3954 38.3377 42.1719 37.7964 42.1719 37.232C42.1719 36.6677 42.3954 36.1264 42.7932 35.7273C43.1911 35.3282 43.7306 35.104 44.2933 35.104ZM47.4754 37.232C47.4754 36.3855 47.1401 35.5736 46.5434 34.975C45.9466 34.3763 45.1372 34.04 44.2933 34.04C43.4493 34.04 42.64 34.3763 42.0432 34.975C41.4464 35.5736 41.1112 36.3855 41.1112 37.232C41.1112 38.0786 41.4464 38.8905 42.0432 39.4891C42.64 40.0877 43.4493 40.424 44.2933 40.424C45.1372 40.424 45.9466 40.0877 46.5434 39.4891C47.1401 38.8905 47.4754 38.0786 47.4754 37.232ZM47.5745 41.8163C46.7101 41.2736 45.5486 40.956 44.2933 40.956C43.0379 40.956 41.8765 41.2742 41.012 41.8163C40.155 42.3536 39.5201 43.1638 39.5201 44.148C39.5201 44.2891 39.576 44.4245 39.6755 44.5242C39.7749 44.624 39.9098 44.68 40.0505 44.68C40.1912 44.68 40.326 44.624 40.4255 44.5242C40.525 44.4245 40.5808 44.2891 40.5808 44.148C40.5808 43.6634 40.8959 43.1436 41.5742 42.718C42.2451 42.2983 43.205 42.02 44.2933 42.02C45.3815 42.02 46.3415 42.2977 47.0124 42.7186C47.6912 43.1431 48.0057 43.6629 48.0057 44.148C48.0057 44.2891 48.0616 44.4245 48.161 44.5242C48.2605 44.624 48.3954 44.68 48.5361 44.68C48.6767 44.68 48.8116 44.624 48.9111 44.5242C49.0105 44.4245 49.0664 44.2891 49.0664 44.148C49.0664 43.1638 48.4316 42.3536 47.5745 41.8163Z" fill="url(#paint5_linear_568_3228)"/>
<path fill-rule="evenodd" clip-rule="evenodd" d="M22.5208 35.104C23.0834 35.104 23.623 35.3282 24.0209 35.7273C24.4187 36.1264 24.6422 36.6677 24.6422 37.232C24.6422 37.7964 24.4187 38.3377 24.0209 38.7368C23.623 39.1358 23.0834 39.36 22.5208 39.36C21.9582 39.36 21.4186 39.1358 21.0208 38.7368C20.6229 38.3377 20.3994 37.7964 20.3994 37.232C20.3994 36.6677 20.6229 36.1264 21.0208 35.7273C21.4186 35.3282 21.9582 35.104 22.5208 35.104ZM25.7029 37.232C25.7029 36.3855 25.3676 35.5736 24.7709 34.975C24.1741 34.3763 23.3648 34.04 22.5208 34.04C21.6769 34.04 20.8675 34.3763 20.2707 34.975C19.674 35.5736 19.3387 36.3855 19.3387 37.232C19.3387 38.0786 19.674 38.8905 20.2707 39.4891C20.8675 40.0877 21.6769 40.424 22.5208 40.424C23.3648 40.424 24.1741 40.0877 24.7709 39.4891C25.3676 38.8905 25.7029 38.0786 25.7029 37.232ZM25.8021 41.8163C24.9376 41.2736 23.7761 40.956 22.5208 40.956C21.2655 40.956 20.104 41.2742 19.2396 41.8163C18.3825 42.3536 17.7477 43.1638 17.7477 44.148C17.7477 44.2891 17.8036 44.4245 17.903 44.5242C18.0025 44.624 18.1374 44.68 18.278 44.68C18.4187 44.68 18.5536 44.624 18.653 44.5242C18.7525 44.4245 18.8084 44.2891 18.8084 44.148C18.8084 43.6634 19.1234 43.1436 19.8017 42.718C20.4726 42.2983 21.4325 42.02 22.5208 42.02C23.6091 42.02 24.569 42.2977 25.2399 42.7186C25.9188 43.1431 26.2332 43.6629 26.2332 44.148C26.2332 44.2891 26.2891 44.4245 26.3886 44.5242C26.488 44.624 26.6229 44.68 26.7636 44.68C26.9043 44.68 27.0392 44.624 27.1386 44.5242C27.2381 44.4245 27.2939 44.2891 27.2939 44.148C27.2939 43.1638 26.6591 42.3536 25.8021 41.8163Z" fill="url(#paint6_linear_568_3228)"/>
<defs>
<linearGradient id="paint0_linear_568_3228" x1="33.1001" y1="-0.227507" x2="70.3582" y2="0.0634897" gradientUnits="userSpaceOnUse">
<stop stop-color="#DC3400"/>
<stop offset="1" stop-color="#DC5C00"/>
</linearGradient>
<linearGradient id="paint1_linear_568_3228" x1="33.3789" y1="6.50198" x2="63.8972" y2="6.73974" gradientUnits="userSpaceOnUse">
<stop stop-color="#DC3400"/>
<stop offset="1" stop-color="#DC5C00"/>
</linearGradient>
<linearGradient id="paint2_linear_568_3228" x1="27.3499" y1="15.3099" x2="43.0636" y2="58.828" gradientUnits="userSpaceOnUse">
<stop stop-color="white"/>
<stop offset="1" stop-color="white" stop-opacity="0"/>
</linearGradient>
<linearGradient id="paint3_linear_568_3228" x1="33.1" y1="11.7884" x2="58.5325" y2="11.9876" gradientUnits="userSpaceOnUse">
<stop stop-color="#DC3400"/>
<stop offset="1" stop-color="#DC5C00"/>
</linearGradient>
<linearGradient id="paint4_linear_568_3228" x1="25.8425" y1="36.2799" x2="40.9155" y2="36.2799" gradientUnits="userSpaceOnUse">
<stop stop-color="#DC5C00"/>
<stop offset="1" stop-color="#DC3400"/>
</linearGradient>
<linearGradient id="paint5_linear_568_3228" x1="39.5201" y1="39.36" x2="49.0664" y2="39.36" gradientUnits="userSpaceOnUse">
<stop stop-color="#DC5C00"/>
<stop offset="1" stop-color="#DC3400"/>
</linearGradient>
<linearGradient id="paint6_linear_568_3228" x1="17.7477" y1="39.36" x2="27.2939" y2="39.36" gradientUnits="userSpaceOnUse">
<stop stop-color="#DC5C00"/>
<stop offset="1" stop-color="#DC3400"/>
</linearGradient>
</defs>
</svg>
