<svg width="24" height="24" viewBox="0 0 24 24" fill="none" xmlns="http://www.w3.org/2000/svg">
<g clip-path="url(#clip0_568_3327)">
<path d="M18.375 0H5.625C2.5184 0 0 2.5184 0 5.625V18.375C0 21.4816 2.5184 24 5.625 24H18.375C21.4816 24 24 21.4816 24 18.375V5.625C24 2.5184 21.4816 0 18.375 0Z" fill="#5865F2"/>
<mask id="mask0_568_3327" style="mask-type:luminance" maskUnits="userSpaceOnUse" x="2" y="4" width="20" height="16">
<path d="M2.625 4.78125H21.375V19.3059H2.625V4.78125Z" fill="white"/>
</mask>
<g mask="url(#mask0_568_3327)">
<path d="M18.4976 6.07464C17.282 5.51662 15.9992 5.11871 14.6812 4.89086C14.6692 4.88864 14.6568 4.89026 14.6458 4.89548C14.6348 4.90069 14.6257 4.90925 14.6198 4.91992C14.455 5.21298 14.2724 5.59548 14.1446 5.89605C12.7034 5.68023 11.2697 5.68023 9.8581 5.89605C9.73022 5.58873 9.54103 5.21298 9.37547 4.91992C9.36934 4.90947 9.36021 4.9011 9.34925 4.89592C9.3383 4.89073 9.32604 4.88897 9.31407 4.89086C7.99595 5.11825 6.71302 5.51618 5.4976 6.07464C5.48719 6.07906 5.47842 6.08659 5.47247 6.0962C3.04172 9.7277 2.37591 13.27 2.70254 16.7683C2.70344 16.7769 2.70607 16.7852 2.71026 16.7927C2.71445 16.8003 2.72011 16.8069 2.72691 16.8122C4.3306 17.99 5.88413 18.705 7.40878 19.1789C7.42065 19.1825 7.4333 19.1823 7.44506 19.1784C7.45683 19.1746 7.46713 19.1672 7.4746 19.1574C7.83525 18.6648 8.15672 18.1455 8.43244 17.5994C8.43624 17.5919 8.43841 17.5837 8.4388 17.5754C8.4392 17.567 8.43781 17.5586 8.43474 17.5508C8.43167 17.543 8.42697 17.5359 8.42097 17.5301C8.41496 17.5242 8.40779 17.5197 8.39991 17.5168C7.88991 17.3233 7.40438 17.0875 6.93732 16.8197C6.92881 16.8147 6.92167 16.8077 6.91652 16.7992C6.91137 16.7908 6.90837 16.7813 6.90778 16.7714C6.9072 16.7615 6.90905 16.7517 6.91317 16.7427C6.91729 16.7338 6.92355 16.7259 6.93141 16.72C7.02994 16.6463 7.12678 16.5704 7.22185 16.4923C7.23017 16.4854 7.24025 16.481 7.25095 16.4796C7.26165 16.4781 7.27255 16.4797 7.28241 16.4841C10.351 17.8851 13.6731 17.8851 16.7054 16.4841C16.7153 16.4794 16.7263 16.4776 16.7372 16.4789C16.7481 16.4803 16.7583 16.4846 16.7668 16.4916C16.862 16.5701 16.9591 16.6462 17.058 16.72C17.0659 16.7259 17.0722 16.7336 17.0764 16.7426C17.0806 16.7515 17.0825 16.7613 17.082 16.7712C17.0815 16.7811 17.0786 16.7906 17.0735 16.7991C17.0684 16.8075 17.0613 16.8146 17.0528 16.8197C16.5855 17.0926 16.096 17.3255 15.5895 17.5161C15.5816 17.5191 15.5745 17.5237 15.5685 17.5297C15.5626 17.5356 15.558 17.5428 15.555 17.5506C15.552 17.5585 15.5507 17.5669 15.5511 17.5753C15.5516 17.5837 15.5539 17.5919 15.5577 17.5994C15.8382 18.1412 16.1581 18.6616 16.5147 19.1566C16.522 19.1667 16.5322 19.1743 16.544 19.1783C16.5558 19.1823 16.5686 19.1825 16.5805 19.1789C18.1126 18.705 19.6661 17.99 21.2699 16.8122C21.2768 16.8071 21.2825 16.8007 21.2867 16.7932C21.2909 16.7858 21.2935 16.7776 21.2943 16.7691C21.6852 12.7246 20.6394 9.21133 18.522 6.09695C18.5168 6.08684 18.5082 6.07892 18.4976 6.07464ZM8.89069 14.6382C7.96678 14.6382 7.20553 13.7901 7.20553 12.7484C7.20553 11.7068 7.95207 10.8586 8.89069 10.8586C9.83663 10.8586 10.5905 11.7143 10.5757 12.7484C10.5757 13.7901 9.82922 14.6382 8.89069 14.6382ZM15.1209 14.6382C14.197 14.6382 13.4359 13.7901 13.4359 12.7484C13.4359 11.7068 14.1823 10.8586 15.1209 10.8586C16.0669 10.8586 16.8207 11.7143 16.806 12.7484C16.806 13.7901 16.0669 14.6382 15.1209 14.6382Z" fill="white"/>
</g>
</g>
<defs>
<clipPath id="clip0_568_3327">
<rect width="24" height="24" fill="white"/>
</clipPath>
</defs>
</svg>
