<svg width="37" height="37" viewBox="0 0 37 37" fill="none" xmlns="http://www.w3.org/2000/svg">
<path opacity="0.25" fill-rule="evenodd" clip-rule="evenodd" d="M18.5 36C28.165 36 36 28.165 36 18.5C36 8.83502 28.165 1 18.5 1C8.83502 1 1 8.83502 1 18.5C1 28.165 8.83502 36 18.5 36Z" stroke="white" stroke-width="1.5"/>
<path d="M25.0584 13.4416C23.9501 12.925 22.7501 12.55 21.5001 12.3333C21.4891 12.3329 21.4782 12.335 21.4681 12.3393C21.458 12.3436 21.449 12.3501 21.4417 12.3583C21.2917 12.6333 21.1167 12.9916 21.0001 13.2666C19.6742 13.0666 18.3259 13.0666 17.0001 13.2666C16.8834 12.9833 16.7084 12.6333 16.5501 12.3583C16.5417 12.3416 16.5167 12.3333 16.4917 12.3333C15.2417 12.55 14.0501 12.925 12.9334 13.4416C12.9251 13.4416 12.9167 13.45 12.9084 13.4583C10.6417 16.85 10.0167 20.15 10.3251 23.4166C10.3251 23.4333 10.3334 23.45 10.3501 23.4583C11.8501 24.5583 13.2917 25.225 14.7167 25.6666C14.7417 25.675 14.7667 25.6666 14.7751 25.65C15.1084 25.1916 15.4084 24.7083 15.6667 24.2C15.6834 24.1666 15.6667 24.1333 15.6334 24.125C15.1584 23.9416 14.7084 23.725 14.2667 23.475C14.2334 23.4583 14.2334 23.4083 14.2584 23.3833C14.3501 23.3166 14.4417 23.2416 14.5334 23.175C14.5501 23.1583 14.5751 23.1583 14.5917 23.1666C17.4584 24.475 20.5501 24.475 23.3834 23.1666C23.4001 23.1583 23.4251 23.1583 23.4417 23.175C23.5334 23.25 23.6251 23.3166 23.7167 23.3916C23.7501 23.4166 23.7501 23.4666 23.7084 23.4833C23.2751 23.7416 22.8167 23.95 22.3417 24.1333C22.3084 24.1416 22.3001 24.1833 22.3084 24.2083C22.5751 24.7166 22.8751 25.2 23.2001 25.6583C23.2251 25.6666 23.2501 25.675 23.2751 25.6666C24.7084 25.225 26.1501 24.5583 27.6501 23.4583C27.6667 23.45 27.6751 23.4333 27.6751 23.4166C28.0417 19.6416 27.0667 16.3666 25.0917 13.4583C25.0834 13.45 25.0751 13.4416 25.0584 13.4416ZM16.1001 21.425C15.2417 21.425 14.5251 20.6333 14.5251 19.6583C14.5251 18.6833 15.2251 17.8916 16.1001 17.8916C16.9834 17.8916 17.6834 18.6916 17.6751 19.6583C17.6751 20.6333 16.9751 21.425 16.1001 21.425ZM21.9084 21.425C21.0501 21.425 20.3334 20.6333 20.3334 19.6583C20.3334 18.6833 21.0334 17.8916 21.9084 17.8916C22.7917 17.8916 23.4917 18.6916 23.4834 19.6583C23.4834 20.6333 22.7917 21.425 21.9084 21.425Z" fill="white"/>
</svg>
