<svg width="117" height="132" viewBox="0 0 117 132" fill="none" xmlns="http://www.w3.org/2000/svg">
<path d="M53.5862 2.31927C56.627 0.560244 60.3735 0.560244 63.4144 2.31927L111.086 29.8957C114.127 31.6548 116 34.9056 116 38.4237V93.5765C116 97.0946 114.127 100.345 111.086 102.105L63.4144 129.681C60.3735 131.44 56.627 131.44 53.5862 129.681L5.91411 102.105C2.87325 100.345 1 97.0946 1 93.5765V38.4237C1 34.9056 2.87325 31.6548 5.91411 29.8957L53.5862 2.31927Z" stroke="url(#paint0_linear_2047_2158)" stroke-opacity="0.2"/>
<path opacity="0.7" d="M54.1363 14.309C57.1459 12.5637 60.8541 12.5637 63.8637 14.309L101.136 35.9237C104.146 37.669 106 40.8946 106 44.3854V87.6146C106 91.1054 104.146 94.3309 101.136 96.0763L63.8637 117.691C60.8541 119.436 57.1459 119.436 54.1363 117.691L16.8637 96.0763C13.854 94.3309 12 91.1054 12 87.6146V44.3854C12 40.8946 13.854 37.669 16.8637 35.9237L54.1363 14.309Z" fill="#121212" stroke="url(#paint1_linear_2047_2158)"/>
<path d="M53.9223 24.2255C56.755 22.5915 60.245 22.5915 63.0778 24.2255L92.4223 41.152C95.255 42.7859 97 45.8056 97 49.0736V82.9264C97 86.1944 95.255 89.2141 92.4223 90.8481L63.0778 107.774C60.245 109.409 56.755 109.409 53.9223 107.774L24.5777 90.8481C21.745 89.2141 20 86.1944 20 82.9264V49.0736C20 45.8056 21.745 42.7859 24.5777 41.152L53.9223 24.2255Z" fill="url(#paint2_linear_2047_2158)" fill-opacity="0.06" stroke="url(#paint3_linear_2047_2158)" stroke-width="2"/>
<path d="M77.9947 68.401L75.7932 56.7209C75.4925 55.1143 74.6399 53.6633 73.3828 52.6187C72.1257 51.5741 70.5431 51.0015 68.9086 51H66.1042C65.1829 50.9984 64.2703 51.1783 63.4186 51.5296C62.5669 51.8809 61.7928 52.3965 61.1405 53.0472L60.9442 53.2295C60.5678 53.5927 60.0652 53.7957 59.5421 53.7957C59.019 53.7957 58.5163 53.5927 58.1399 53.2295L57.9716 53.0612C57.3205 52.408 56.5469 51.8898 55.6951 51.5361C54.8434 51.1824 53.9302 51.0002 53.0079 51H50.2036C48.5691 51.0015 46.9865 51.5741 45.7294 52.6187C44.4723 53.6633 43.6197 55.1143 43.3189 56.7209L41.0895 68.401C40.8241 69.9987 41.1537 71.6382 42.016 73.0091C42.8783 74.3801 44.2134 75.3872 45.7684 75.8399C47.3234 76.2926 48.9905 76.1594 50.4539 75.4655C51.9173 74.7716 53.0754 73.5652 53.709 72.0747C54.0535 71.2431 54.6372 70.5326 55.3862 70.0333C56.1351 69.534 57.0155 69.2685 57.9155 69.2703H61.0845C61.9845 69.2685 62.8649 69.534 63.6138 70.0333C64.3628 70.5326 64.9465 71.2431 65.291 72.0747C65.9246 73.5652 67.0827 74.7716 68.5461 75.4655C70.0095 76.1594 71.6766 76.2926 73.2316 75.8399C74.7866 75.3872 76.1217 74.3801 76.984 73.0091C77.8463 71.6382 78.1759 69.9987 77.9105 68.401H77.9947ZM74.4191 72.0326C73.9982 72.5391 73.4534 72.9279 72.8376 73.1613C72.2219 73.3947 71.5562 73.4647 70.9053 73.3644C70.2545 73.2642 69.6407 72.9972 69.1237 72.5893C68.6067 72.1814 68.2041 71.6467 67.9551 71.0371C67.4149 69.6691 66.4737 68.4965 65.255 67.6733C64.0364 66.85 62.5972 66.4144 61.1265 66.4239H57.9576C56.4869 66.4144 55.0478 66.85 53.8291 67.6733C52.6104 68.4965 51.6692 69.6691 51.129 71.0371C50.7784 71.9179 50.1122 72.6365 49.2605 73.0528C48.4087 73.4691 47.4325 73.5533 46.5221 73.2889C45.6116 73.0245 44.8323 72.4306 44.336 71.6228C43.8398 70.815 43.6621 69.8514 43.8377 68.9198L46.0251 57.2397C46.2056 56.2719 46.7198 55.3981 47.4782 54.7704C48.2366 54.1426 49.1911 53.8008 50.1756 53.8044H52.9799C53.5345 53.803 54.0839 53.9113 54.5964 54.1231C55.109 54.3348 55.5746 54.6459 55.9665 55.0383L56.1348 55.2065C57.0451 56.0757 58.2554 56.5606 59.514 56.5606C60.7727 56.5606 61.9829 56.0757 62.8933 55.2065L63.0755 55.0383C63.4691 54.6442 63.937 54.3322 64.4521 54.1204C64.9672 53.9086 65.5192 53.8011 66.0762 53.8044H68.8805C69.8626 53.8041 70.8138 54.1474 71.5693 54.7748C72.3248 55.4023 72.8369 56.2743 73.0169 57.2397L75.2043 68.9198C75.3085 69.4645 75.2922 70.0254 75.1566 70.5632C75.0209 71.1009 74.7692 71.6025 74.4191 72.0326ZM55.3355 60.8152C55.3355 61.1871 55.1878 61.5437 54.9249 61.8067C54.6619 62.0697 54.3053 62.2174 53.9334 62.2174H52.5312V63.6196C52.5312 63.9914 52.3835 64.3481 52.1205 64.611C51.8576 64.874 51.5009 65.0217 51.129 65.0217C50.7572 65.0217 50.4005 64.874 50.1375 64.611C49.8746 64.3481 49.7269 63.9914 49.7269 63.6196V62.2174H48.3247C47.9528 62.2174 47.5962 62.0697 47.3332 61.8067C47.0702 61.5437 46.9225 61.1871 46.9225 60.8152C46.9225 60.4433 47.0702 60.0867 47.3332 59.8237C47.5962 59.5608 47.9528 59.413 48.3247 59.413H49.7269V58.0109C49.7269 57.639 49.8746 57.2823 50.1375 57.0194C50.4005 56.7564 50.7572 56.6087 51.129 56.6087C51.5009 56.6087 51.8576 56.7564 52.1205 57.0194C52.3835 57.2823 52.5312 57.639 52.5312 58.0109V59.413H53.9334C54.3053 59.413 54.6619 59.5608 54.9249 59.8237C55.1878 60.0867 55.3355 60.4433 55.3355 60.8152ZM66.5529 60.8152C66.5529 61.0925 66.4707 61.3636 66.3166 61.5942C66.1625 61.8248 65.9436 62.0045 65.6873 62.1107C65.4311 62.2168 65.1492 62.2446 64.8772 62.1904C64.6052 62.1363 64.3554 62.0028 64.1593 61.8067C63.9632 61.6106 63.8296 61.3608 63.7755 61.0888C63.7214 60.8168 63.7492 60.5348 63.8553 60.2786C63.9614 60.0224 64.1412 59.8034 64.3717 59.6494C64.6023 59.4953 64.8734 59.413 65.1508 59.413C65.5226 59.413 65.8793 59.5608 66.1422 59.8237C66.4052 60.0867 66.5529 60.4433 66.5529 60.8152ZM72.1616 60.8152C72.1616 61.0925 72.0794 61.3636 71.9253 61.5942C71.7712 61.8248 71.5522 62.0045 71.296 62.1107C71.0398 62.2168 70.7579 62.2446 70.4859 62.1904C70.2139 62.1363 69.9641 62.0028 69.768 61.8067C69.5719 61.6106 69.4383 61.3608 69.3842 61.0888C69.3301 60.8168 69.3579 60.5348 69.464 60.2786C69.5701 60.0224 69.7499 59.8034 69.9804 59.6494C70.211 59.4953 70.4821 59.413 70.7594 59.413C71.1313 59.413 71.488 59.5608 71.7509 59.8237C72.0139 60.0867 72.1616 60.4433 72.1616 60.8152ZM69.3573 63.6196C69.3573 63.8969 69.275 64.168 69.121 64.3986C68.9669 64.6292 68.7479 64.8089 68.4917 64.915C68.2355 65.0211 67.9535 65.0489 67.6815 64.9948C67.4096 64.9407 67.1597 64.8071 66.9636 64.611C66.7675 64.415 66.634 64.1651 66.5799 63.8931C66.5258 63.6211 66.5535 63.3392 66.6597 63.083C66.7658 62.8268 66.9455 62.6078 67.1761 62.4537C67.4067 62.2996 67.6778 62.2174 67.9551 62.2174C68.327 62.2174 68.6836 62.3651 68.9466 62.6281C69.2095 62.891 69.3573 63.2477 69.3573 63.6196ZM66.5529 58.0109C66.5529 57.7336 66.6352 57.4625 66.7892 57.2319C66.9433 57.0013 67.1623 56.8216 67.4185 56.7154C67.6747 56.6093 67.9567 56.5815 68.2287 56.6356C68.5006 56.6897 68.7505 56.8233 68.9466 57.0194C69.1427 57.2155 69.2762 57.4653 69.3303 57.7373C69.3844 58.0093 69.3567 58.2912 69.2505 58.5475C69.1444 58.8037 68.9647 59.0227 68.7341 59.1767C68.5035 59.3308 68.2324 59.413 67.9551 59.413C67.5832 59.413 67.2266 59.2653 66.9636 59.0024C66.7007 58.7394 66.5529 58.3828 66.5529 58.0109Z" fill="url(#paint4_linear_2047_2158)"/>
<defs>
<linearGradient id="paint0_linear_2047_2158" x1="58.5003" y1="-1.19198" x2="125.24" y2="-0.669097" gradientUnits="userSpaceOnUse">
<stop stop-color="#AB9236"/>
<stop offset="1" stop-color="#DFC960"/>
</linearGradient>
<linearGradient id="paint1_linear_2047_2158" x1="59" y1="10.825" x2="113.667" y2="11.2522" gradientUnits="userSpaceOnUse">
<stop stop-color="#AB9236"/>
<stop offset="1" stop-color="#DFC960"/>
</linearGradient>
<linearGradient id="paint2_linear_2047_2158" x1="48.2001" y1="26.5533" x2="76.1931" y2="104.32" gradientUnits="userSpaceOnUse">
<stop stop-color="white"/>
<stop offset="1" stop-color="white" stop-opacity="0"/>
</linearGradient>
<linearGradient id="paint3_linear_2047_2158" x1="58.5" y1="20.2648" x2="104.057" y2="20.6228" gradientUnits="userSpaceOnUse">
<stop stop-color="#AB9236"/>
<stop offset="1" stop-color="#DFC960"/>
</linearGradient>
<linearGradient id="paint4_linear_2047_2158" x1="78" y1="63.5519" x2="41" y2="63.5519" gradientUnits="userSpaceOnUse">
<stop stop-color="#AB9236"/>
<stop offset="1" stop-color="#DFC960"/>
</linearGradient>
</defs>
</svg>
