<svg width="17" height="15" viewBox="0 0 17 15" fill="none" xmlns="http://www.w3.org/2000/svg">
<path d="M6.3448 12.548L6.69798 12.0999L6.3448 12.548ZM8.65587 2.34739L8.24477 2.74308L8.25255 2.75086L8.65587 2.34739ZM10.9669 12.548L11.3201 12.996L10.9669 12.548ZM9.77386 4.27162C9.99669 4.49437 10.3579 4.49431 10.5807 4.27147C10.8034 4.04864 10.8033 3.68743 10.5805 3.46468L9.77386 4.27162ZM6.69798 12.0999C5.54509 11.1911 4.28444 10.3036 3.28434 9.17742C2.3038 8.0733 1.61981 6.78495 1.61981 5.11349H0.478825C0.478825 7.14104 1.32353 8.68777 2.43121 9.93506C3.51934 11.1603 4.90643 12.1405 5.99162 12.996L6.69798 12.0999ZM1.61981 5.11349C1.61981 3.47742 2.54428 2.10541 3.8062 1.52859C5.03216 0.968199 6.67943 1.1166 8.24484 2.74301L9.06691 1.95177C7.20949 0.0219784 5.05348 -0.296078 3.33186 0.490876C1.64621 1.26139 0.478825 3.05054 0.478825 5.11349H1.61981ZM5.99162 12.996C6.38125 13.3031 6.79953 13.6307 7.22342 13.8784C7.64714 14.126 8.13072 14.3272 8.65587 14.3272V13.1862C8.42037 13.1862 8.1433 13.0944 7.79908 12.8933C7.45504 12.6922 7.09811 12.4154 6.69798 12.0999L5.99162 12.996ZM11.3201 12.996C12.4053 12.1405 13.7924 11.1603 14.8805 9.93506C15.9882 8.68777 16.8329 7.14104 16.8329 5.11349H15.6919C15.6919 6.78495 15.0079 8.0733 14.0274 9.17742C13.0273 10.3036 11.7667 11.1911 10.6138 12.0999L11.3201 12.996ZM16.8329 5.11349C16.8329 3.05054 15.6655 1.26139 13.9799 0.490876C12.2583 -0.296078 10.1023 0.0219784 8.24484 1.95177L9.06691 2.74301C10.6323 1.1166 12.2796 0.968199 13.5055 1.52859C14.7675 2.10541 15.6919 3.47742 15.6919 5.11349H16.8329ZM10.6138 12.0999C10.2136 12.4154 9.8567 12.6922 9.51267 12.8933C9.16845 13.0944 8.89137 13.1862 8.65587 13.1862V14.3272C9.18103 14.3272 9.66461 14.126 10.0883 13.8784C10.5122 13.6307 10.9305 13.3031 11.3201 12.996L10.6138 12.0999ZM8.25255 2.75086L9.77386 4.27162L10.5805 3.46468L9.0592 1.94392L8.25255 2.75086Z" fill="#F8F8F8"/>
</svg>
