<svg width="169" height="39" viewBox="0 0 169 39" fill="none" xmlns="http://www.w3.org/2000/svg">
<path d="M16.3872 2.6095C18.2495 1.39493 23.2374 -0.305462 28.29 2.6095" stroke="#8630F4" stroke-width="1.94331" stroke-linecap="round"/>
<path fill-rule="evenodd" clip-rule="evenodd" d="M39.0448 23.7735L39.0448 23.7734L39.0448 23.7734C39.2698 23.2511 39.4796 22.764 39.7068 22.407C40.1753 21.47 40.8948 20.9346 41.7684 20.2845C42.2537 19.9233 42.7866 19.5267 43.3505 19.0062C43.7959 18.5609 44.6866 17.1115 44.6866 14.8767C44.6866 12.0831 42.7433 8.68236 40.7999 6.61759C38.8566 4.55282 36.9133 3.58117 34.4842 3.58117C32.055 3.58117 29.7474 4.79574 29.0186 7.10342C26.9539 5.16011 21.2454 3.09534 15.7798 6.98196C14.8082 4.43145 11.043 1.75931 6.30618 4.67428C5.29404 5.2411 2.80822 7.29783 0.962078 10.9901C-1.3456 15.6055 0.962079 19.1277 3.02685 20.3423C4.36287 21.1925 5.45607 22.7714 5.9419 24.2289C6.42773 25.6864 7.27792 26.901 8.61395 26.901C9.94998 26.901 11.0431 24.9577 11.6504 23.3787C12.1362 22.1156 12.5006 21.152 12.622 20.8281C13.2293 22.2046 15.1969 25.1763 18.209 26.0508C18.3315 26.8028 18.4413 27.4994 18.5432 28.146L18.5433 28.1462C19.1493 31.9904 19.4771 34.0689 20.5167 35.5244C21.7313 37.2248 23.6746 38.3179 25.4965 38.3179C27.3183 38.3179 30.4762 36.9819 30.4762 34.0669C30.4762 32.488 29.3831 30.9091 27.8041 30.9091C26.2252 30.9091 26.2252 32.0022 26.2252 32.2451C26.2252 32.3202 26.3876 32.4068 26.612 32.5266C27.1137 32.7944 27.9256 33.2277 27.9256 34.0669C27.9256 35.2815 26.5896 35.403 26.3467 35.403C26.1037 35.403 24.4033 35.0386 24.4033 32.9738C24.4033 31.0833 25.6252 28.0727 26.2044 26.6458L26.2044 26.6456L26.2045 26.6453C26.2579 26.514 26.3057 26.3961 26.3467 26.2937C27.3183 25.8079 29.8689 24.2289 32.1766 20.9496C33.0268 23.7431 34.2412 27.0223 36.1846 26.9009C37.6975 26.9009 38.4279 25.2054 39.0448 23.7735ZM29.2616 16.9414C30.0666 16.9414 30.7191 16.2345 30.7191 15.3625C30.7191 14.4905 30.0666 13.7836 29.2616 13.7836C28.4567 13.7836 27.8042 14.4905 27.8042 15.3625C27.8042 16.2345 28.4567 16.9414 29.2616 16.9414ZM16.873 15.3625C16.873 16.2345 16.2205 16.9414 15.4155 16.9414C14.6106 16.9414 13.9581 16.2345 13.9581 15.3625C13.9581 14.4905 14.6106 13.7836 15.4155 13.7836C16.2205 13.7836 16.873 14.4905 16.873 15.3625ZM19.788 12.3261C19.3855 12.3261 19.0592 12.6523 19.0592 13.0548C19.0592 13.4573 19.3855 13.7836 19.788 13.7836H24.8891C25.2916 13.7836 25.6179 13.4573 25.6179 13.0548C25.6179 12.6523 25.2916 12.3261 24.8891 12.3261H19.788ZM19.0592 15.7269C19.0592 15.3244 19.3855 14.9981 19.788 14.9981H24.8891C25.2916 14.9981 25.6179 15.3244 25.6179 15.7269C25.6179 16.1293 25.2916 16.4556 24.8891 16.4556H19.788C19.3855 16.4556 19.0592 16.1293 19.0592 15.7269ZM19.788 17.4273C19.3855 17.4273 19.0592 17.7535 19.0592 18.156C19.0592 18.5585 19.3855 18.8847 19.788 18.8847H24.8891C25.2916 18.8847 25.6179 18.5585 25.6179 18.156C25.6179 17.7535 25.2916 17.4273 24.8891 17.4273H19.788ZM19.3021 20.1067C19.3021 20.1026 19.3054 20.0993 19.3095 20.0993H25.3676C25.3717 20.0993 25.375 20.1026 25.375 20.1067C25.375 20.9076 24.7257 21.5568 23.9249 21.5568H20.7523C19.9514 21.5568 19.3021 20.9076 19.3021 20.1067ZM19.3107 11.3544C19.306 11.3544 19.3021 11.3506 19.3021 11.3458C19.3021 10.4115 20.0596 9.65402 20.9939 9.65402H23.6832C24.6175 9.65402 25.375 10.4115 25.375 11.3458C25.375 11.3506 25.3711 11.3544 25.3664 11.3544H19.3107Z" fill="#8630F4"/>
<path d="M63.1365 10.4069C65.0605 10.4069 66.7419 10.7883 68.1805 11.5509C69.6192 12.3136 70.7285 13.3883 71.5085 14.7749C72.3059 16.1443 72.7045 17.7303 72.7045 19.5329C72.7045 21.3183 72.3059 22.9043 71.5085 24.2909C70.7285 25.6776 69.6105 26.7523 68.1545 27.5149C66.7159 28.2776 65.0432 28.6589 63.1365 28.6589H56.2985V10.4069H63.1365ZM62.8505 24.8109C64.5319 24.8109 65.8405 24.3516 66.7765 23.4329C67.7125 22.5143 68.1805 21.2143 68.1805 19.5329C68.1805 17.8516 67.7125 16.5429 66.7765 15.6069C65.8405 14.6709 64.5319 14.2029 62.8505 14.2029H60.7445V24.8109H62.8505ZM88.7351 14.1509V28.6589H84.2891V26.6829C83.8385 27.3243 83.2231 27.8443 82.4431 28.2429C81.6805 28.6243 80.8311 28.8149 79.8951 28.8149C78.7858 28.8149 77.8065 28.5723 76.9571 28.0869C76.1078 27.5843 75.4491 26.8649 74.9811 25.9289C74.5131 24.9929 74.2791 23.8923 74.2791 22.6269V14.1509H78.6991V22.0289C78.6991 22.9996 78.9505 23.7536 79.4531 24.2909C79.9558 24.8283 80.6318 25.0969 81.4811 25.0969C82.3478 25.0969 83.0325 24.8283 83.5351 24.2909C84.0378 23.7536 84.2891 22.9996 84.2891 22.0289V14.1509H88.7351ZM95.5947 16.2049C96.0107 15.5289 96.6087 14.9829 97.3887 14.5669C98.1687 14.1509 99.0613 13.9429 100.067 13.9429C101.263 13.9429 102.346 14.2463 103.317 14.8529C104.287 15.4596 105.05 16.3263 105.605 17.4529C106.177 18.5796 106.463 19.8883 106.463 21.3789C106.463 22.8696 106.177 24.1869 105.605 25.3309C105.05 26.4576 104.287 27.3329 103.317 27.9569C102.346 28.5636 101.263 28.8669 100.067 28.8669C99.044 28.8669 98.1513 28.6676 97.3887 28.2689C96.626 27.8529 96.028 27.3069 95.5947 26.6309V28.6589H91.1487V9.41894H95.5947V16.2049ZM101.939 21.3789C101.939 20.2696 101.627 19.4029 101.003 18.7789C100.396 18.1376 99.642 17.8169 98.7407 17.8169C97.8567 17.8169 97.1027 18.1376 96.4787 18.7789C95.872 19.4203 95.5687 20.2956 95.5687 21.4049C95.5687 22.5143 95.872 23.3896 96.4787 24.0309C97.1027 24.6723 97.8567 24.9929 98.7407 24.9929C99.6247 24.9929 100.379 24.6723 101.003 24.0309C101.627 23.3723 101.939 22.4883 101.939 21.3789ZM119.897 10.4069V13.9689H112.461V17.8169H118.025V21.2749H112.461V28.6589H108.015V10.4069H119.897ZM135.13 21.1709C135.13 21.5869 135.104 22.0203 135.052 22.4709H124.99C125.059 23.3723 125.345 24.0656 125.848 24.5509C126.368 25.0189 127.001 25.2529 127.746 25.2529C128.855 25.2529 129.627 24.7849 130.06 23.8489H134.792C134.549 24.8023 134.107 25.6603 133.466 26.4229C132.842 27.1856 132.053 27.7836 131.1 28.2169C130.147 28.6503 129.081 28.8669 127.902 28.8669C126.481 28.8669 125.215 28.5636 124.106 27.9569C122.997 27.3503 122.13 26.4836 121.506 25.3569C120.882 24.2303 120.57 22.9129 120.57 21.4049C120.57 19.8969 120.873 18.5796 121.48 17.4529C122.104 16.3263 122.971 15.4596 124.08 14.8529C125.189 14.2463 126.463 13.9429 127.902 13.9429C129.306 13.9429 130.554 14.2376 131.646 14.8269C132.738 15.4163 133.587 16.2569 134.194 17.3489C134.818 18.4409 135.13 19.7149 135.13 21.1709ZM130.58 20.0009C130.58 19.2383 130.32 18.6316 129.8 18.1809C129.28 17.7303 128.63 17.5049 127.85 17.5049C127.105 17.5049 126.472 17.7216 125.952 18.1549C125.449 18.5883 125.137 19.2036 125.016 20.0009H130.58ZM150.371 21.1709C150.371 21.5869 150.345 22.0203 150.293 22.4709H140.231C140.301 23.3723 140.587 24.0656 141.089 24.5509C141.609 25.0189 142.242 25.2529 142.987 25.2529C144.097 25.2529 144.868 24.7849 145.301 23.8489H150.033C149.791 24.8023 149.349 25.6603 148.707 26.4229C148.083 27.1856 147.295 27.7836 146.341 28.2169C145.388 28.6503 144.322 28.8669 143.143 28.8669C141.722 28.8669 140.457 28.5636 139.347 27.9569C138.238 27.3503 137.371 26.4836 136.747 25.3569C136.123 24.2303 135.811 22.9129 135.811 21.4049C135.811 19.8969 136.115 18.5796 136.721 17.4529C137.345 16.3263 138.212 15.4596 139.321 14.8529C140.431 14.2463 141.705 13.9429 143.143 13.9429C144.547 13.9429 145.795 14.2376 146.887 14.8269C147.979 15.4163 148.829 16.2569 149.435 17.3489C150.059 18.4409 150.371 19.7149 150.371 21.1709ZM145.821 20.0009C145.821 19.2383 145.561 18.6316 145.041 18.1809C144.521 17.7303 143.871 17.5049 143.091 17.5049C142.346 17.5049 141.713 17.7216 141.193 18.1549C140.691 18.5883 140.379 19.2036 140.257 20.0009H145.821ZM151.053 21.3789C151.053 19.8883 151.33 18.5796 151.885 17.4529C152.457 16.3263 153.228 15.4596 154.199 14.8529C155.17 14.2463 156.253 13.9429 157.449 13.9429C158.402 13.9429 159.269 14.1423 160.049 14.5409C160.846 14.9396 161.47 15.4769 161.921 16.1529V9.41894H166.367V28.6589H161.921V26.5789C161.505 27.2723 160.907 27.8269 160.127 28.2429C159.364 28.6589 158.472 28.8669 157.449 28.8669C156.253 28.8669 155.17 28.5636 154.199 27.9569C153.228 27.3329 152.457 26.4576 151.885 25.3309C151.33 24.1869 151.053 22.8696 151.053 21.3789ZM161.921 21.4049C161.921 20.2956 161.609 19.4203 160.985 18.7789C160.378 18.1376 159.633 17.8169 158.749 17.8169C157.865 17.8169 157.111 18.1376 156.487 18.7789C155.88 19.4029 155.577 20.2696 155.577 21.3789C155.577 22.4883 155.88 23.3723 156.487 24.0309C157.111 24.6723 157.865 24.9929 158.749 24.9929C159.633 24.9929 160.378 24.6723 160.985 24.0309C161.609 23.3896 161.921 22.5143 161.921 21.4049Z" fill="#F8F8F8"/>
</svg>
