<svg width="136" height="119" viewBox="0 0 136 119" fill="none" xmlns="http://www.w3.org/2000/svg">
<path d="M43.7089 16.183C43.7089 16.4781 43.5883 16.747 43.3945 16.9408C43.2007 17.1346 42.9338 17.2552 42.6367 17.2552H34.7825C34.1903 17.2552 33.708 16.7752 33.708 16.183C33.708 16.069 33.7253 15.9592 33.7596 15.8559C33.8113 15.6922 33.9037 15.5438 34.0224 15.4252C34.2184 15.2314 34.4854 15.1108 34.7825 15.1108H42.6367C43.1148 15.1108 43.5194 15.4229 43.6573 15.8559C43.6919 15.9592 43.7089 16.069 43.7089 16.183Z" fill="#18388B"/>
<path d="M43.1928 15.5582C43.4235 15.7817 43.4346 16.1624 43.2088 16.3908C43.2075 16.3921 43.2062 16.3934 43.2049 16.3947C43.019 16.5807 42.7628 16.6964 42.4778 16.6964H34.9415C34.6634 16.6964 34.4115 16.5862 34.2259 16.4078C33.9942 16.1843 33.9824 15.8026 34.2089 15.5742C34.2099 15.5729 34.2112 15.5719 34.2122 15.5709C34.4001 15.385 34.6563 15.2693 34.9415 15.2693H42.4778C42.7556 15.269 43.0079 15.3791 43.1928 15.5582Z" fill="#204BA0"/>
<path d="M42.0076 15.6119H41.3632C41.2615 15.6119 41.1792 15.5295 41.1792 15.4279C41.1792 15.3262 41.2615 15.2439 41.3632 15.2439H42.0076C42.1092 15.2439 42.1912 15.3262 42.1912 15.4279C42.1912 15.5295 42.1092 15.6119 42.0076 15.6119Z" fill="#3665B8"/>
<path d="M42.5569 15.6119H42.4965C42.3948 15.6119 42.3125 15.5295 42.3125 15.4279C42.3125 15.3262 42.3948 15.2439 42.4965 15.2439H42.5569C42.6586 15.2439 42.7409 15.3262 42.7409 15.4279C42.7406 15.5295 42.6586 15.6119 42.5569 15.6119Z" fill="#3665B8"/>
<path d="M43.7089 26.6584C43.7089 26.9534 43.5883 27.2224 43.3945 27.4162C43.2007 27.6099 42.9338 27.7305 42.6367 27.7305H34.7825C34.1903 27.7305 33.708 27.2505 33.708 26.6584C33.708 26.5443 33.7253 26.4345 33.7596 26.3312C33.8113 26.1675 33.9037 26.0192 34.0224 25.9005C34.2184 25.7068 34.4854 25.5862 34.7825 25.5862H42.6367C43.1148 25.5862 43.5194 25.8983 43.6573 26.3312C43.6919 26.4345 43.7089 26.5443 43.7089 26.6584Z" fill="#18388B"/>
<path d="M43.1928 26.034C43.4235 26.2575 43.4346 26.6382 43.2088 26.8666C43.2075 26.8679 43.2062 26.8693 43.2049 26.8706C43.019 27.0565 42.7628 27.1722 42.4778 27.1722H34.9415C34.6634 27.1722 34.4115 27.0621 34.2259 26.8836C33.9942 26.6601 33.9824 26.2784 34.2089 26.05C34.2099 26.049 34.2112 26.0477 34.2122 26.0467C34.4001 25.8608 34.6563 25.7451 34.9415 25.7451H42.4778C42.7556 25.7448 43.0079 25.8549 43.1928 26.034Z" fill="#204BA0"/>
<path d="M42.0076 26.0877H41.3632C41.2615 26.0877 41.1792 26.0053 41.1792 25.9037C41.1792 25.8021 41.2615 25.7197 41.3632 25.7197H42.0076C42.1092 25.7197 42.1912 25.8021 42.1912 25.9037C42.1912 26.0053 42.1092 26.0877 42.0076 26.0877Z" fill="#3665B8"/>
<path d="M42.5569 26.0877H42.4965C42.3948 26.0877 42.3125 26.0053 42.3125 25.9037C42.3125 25.8021 42.3948 25.7197 42.4965 25.7197H42.5569C42.6586 25.7197 42.7409 25.8021 42.7409 25.9037C42.7406 26.0053 42.6586 26.0877 42.5569 26.0877Z" fill="#3665B8"/>
<path d="M42.5674 17.7916V17.2554H34.8511V17.7916C34.8511 19.4654 35.919 20.8859 37.4088 21.4202C35.9187 21.9545 34.8511 23.375 34.8511 25.0488V25.5851H42.5674V25.0488C42.5674 23.375 41.4995 21.9545 40.0097 21.4202C41.4995 20.8863 42.5674 19.4654 42.5674 17.7916Z" fill="#FEFFFF"/>
<path d="M38.7092 21.0276C36.8806 21.0276 35.3979 19.545 35.3979 17.7163V17.2559H42.0205V17.7163C42.0205 19.545 40.5379 21.0276 38.7092 21.0276Z" fill="#E5E5FF"/>
<path d="M38.7092 21.814C36.8806 21.814 35.3979 23.2966 35.3979 25.1253V25.5857H42.0205V25.1253C42.0205 23.2966 40.5379 21.814 38.7092 21.814Z" fill="#E5E5FF"/>
<path d="M38.7095 20.5774C37.0988 20.5774 35.793 19.2716 35.793 17.6609V17.2554H41.6257V17.6609C41.6257 19.2716 40.3199 20.5774 38.7095 20.5774Z" fill="#FFD81D"/>
<path d="M38.7093 20.0008C37.3784 20.0008 36.2993 18.9218 36.2993 17.5908V17.2559H41.1194V17.5908C41.1194 18.9218 40.0403 20.0008 38.7093 20.0008Z" fill="#FFF133"/>
<path d="M41.2634 18.57C41.1157 18.8945 40.8196 19.0775 40.602 18.9785C40.3844 18.8794 40.3282 18.536 40.4762 18.2115C40.6239 17.887 40.92 17.704 41.1376 17.803C41.3546 17.9017 41.4111 18.2451 41.2634 18.57Z" fill="#FFFF4C"/>
<path d="M40.4415 19.5549C40.3049 19.6801 40.1262 19.7075 40.0425 19.6164C39.9585 19.5249 40.0013 19.349 40.1379 19.2239C40.2745 19.0987 40.4533 19.0713 40.5369 19.1625C40.6209 19.254 40.5781 19.4294 40.4415 19.5549Z" fill="#FFFF4C"/>
<path d="M41.6248 25.2107V25.6155H35.792V25.2107C35.792 25.1525 35.7943 25.0966 35.7985 25.0384C35.8868 23.5078 37.157 22.2935 38.7095 22.2935C40.2617 22.2935 41.53 23.5078 41.6182 25.0384C41.6225 25.0963 41.6248 25.1525 41.6248 25.2107Z" fill="#FFD81D"/>
<path d="M41.3464 25.0385H36.0708C36.1509 23.651 37.3024 22.55 38.7096 22.55C40.117 22.55 41.2663 23.6507 41.3464 25.0385Z" fill="#FFF133"/>
<path d="M40.2173 22.9409C40.4977 23.1321 40.6091 23.4566 40.4666 23.6657C40.3241 23.8749 39.981 23.8899 39.701 23.6987C39.4206 23.5076 39.3092 23.1834 39.4516 22.9739C39.5941 22.7648 39.9369 22.7501 40.2173 22.9409Z" fill="#FFFF4C"/>
<path d="M40.9286 23.6974C41.0002 23.7984 40.9973 23.9235 40.9218 23.9771C40.8463 24.0304 40.7273 23.9918 40.6558 23.8908C40.5842 23.7899 40.5872 23.6647 40.6626 23.6111C40.7378 23.5578 40.8571 23.5964 40.9286 23.6974Z" fill="#FFFF4C"/>
<path d="M42.5677 17.2551V17.7914C42.5677 17.843 42.5677 17.8969 42.5655 17.9486H34.8534C34.8511 17.8969 34.8511 17.843 34.8511 17.7914V17.2551H42.5677Z" fill="#D3D1FF"/>
<path d="M42.5679 25.0489V25.5852H34.8516V25.0489C34.8516 24.9973 34.8516 24.9457 34.8539 24.894H42.5659C42.5679 24.9457 42.5679 24.9973 42.5679 25.0489Z" fill="#D3D1FF"/>
<path d="M9.19693 55.9801L10.1404 57.8918L12.2501 58.1983L10.7233 59.6862L11.0838 61.7874L9.19693 60.7953L7.31008 61.7874L7.67052 59.6862L6.14379 58.1983L8.2535 57.8918L9.19693 55.9801ZM9.19693 54.9766C8.81492 54.9766 8.46591 55.1935 8.29696 55.536L7.58686 56.9745L5.99935 57.2052C5.62126 57.2601 5.30722 57.5251 5.18925 57.8882C5.07128 58.2516 5.16965 58.6506 5.44316 58.9172L6.59181 60.0368L6.32058 61.6178C6.25587 61.9942 6.41077 62.3749 6.71991 62.5994C6.89474 62.7266 7.10192 62.7913 7.31008 62.7913C7.46987 62.7913 7.63033 62.753 7.77705 62.6759L9.19693 61.9295L10.6168 62.6759C10.7635 62.753 10.924 62.7913 11.0838 62.7913C11.2919 62.7913 11.4991 62.7266 11.6739 62.5994C11.9831 62.3749 12.138 61.9942 12.0733 61.6178L11.802 60.0368L12.9507 58.9172C13.2242 58.6506 13.3229 58.2516 13.2046 57.8882C13.0866 57.5248 12.7723 57.2601 12.3942 57.2052L10.8067 56.9745L10.0966 55.536C9.92827 55.1935 9.57926 54.9766 9.19693 54.9766Z" fill="#8630F4"/>
<path d="M82.7991 1.00388L83.7426 2.91556L85.8523 3.22209L84.3259 4.71026L84.6863 6.81148L82.7995 5.81936L80.9126 6.81148L81.2731 4.71026L79.7463 3.22209L81.856 2.91556L82.7991 1.00388ZM82.7991 0C82.4171 0 82.0681 0.216984 81.8992 0.559453L81.1894 1.99795L79.6019 2.22866C79.2238 2.28356 78.9098 2.54859 78.7918 2.91164C78.6738 3.2747 78.7722 3.67403 79.0457 3.94068L80.1944 5.06024L79.9231 6.64122C79.8584 7.01767 80.0133 7.39838 80.3225 7.62288C80.4973 7.75 80.7045 7.8147 80.9126 7.8147C81.0724 7.8147 81.2329 7.77679 81.3796 7.69935L82.7995 6.95297L84.2193 7.69935C84.3661 7.77647 84.5265 7.8147 84.6863 7.8147C84.8945 7.8147 85.1017 7.75 85.2765 7.62288C85.5856 7.39838 85.7402 7.01767 85.6758 6.64122L85.4046 5.06024L86.5532 3.94068C86.8267 3.67403 86.9251 3.27503 86.8071 2.91164C86.6892 2.54826 86.3748 2.28356 85.997 2.22866L84.4095 1.99795L83.6998 0.559453C83.5302 0.216984 83.1811 0 82.7991 0Z" fill="#FFF133"/>
<path d="M100.486 88.1873L101.232 89.699L102.9 89.9411L101.693 91.1178L101.978 92.7795L100.486 91.9949L98.9935 92.7795L99.2784 91.1178L98.0713 89.9411L99.7395 89.699L100.486 88.1873Z" fill="#FEFFFF"/>
<path d="M37.4333 35.1575L38.1794 36.6692L39.8476 36.9116L38.6405 38.0881L38.9254 39.7498L37.4333 38.9651L35.9409 39.7498L36.2262 38.0881L35.019 36.9116L36.6873 36.6692L37.4333 35.1575Z" fill="#FEFFFF"/>
<path d="M49.9406 2.16626L50.6867 3.67796L52.3549 3.92043L51.1478 5.09718L51.4327 6.75855L49.9406 5.97427L48.4485 6.75855L48.7335 5.09718L47.5264 3.92043L49.1946 3.67796L49.9406 2.16626Z" fill="#24275E"/>
<path d="M106.758 31.0781L107.504 32.5898L109.173 32.8323L107.965 34.009L108.25 35.6704L106.758 34.8861L105.266 35.6704L105.551 34.009L104.344 32.8323L106.012 32.5898L106.758 31.0781Z" fill="#24275E"/>
<path d="M37.2922 76.5667L38.0383 78.0784L39.7065 78.3208L38.4993 79.4972L38.7843 81.1589L37.2922 80.3743L35.8001 81.1589L36.0851 79.4972L34.8779 78.3208L36.5462 78.0784L37.2922 76.5667Z" fill="#FFF133"/>
<path d="M13.4745 56.1873C14.0159 56.1873 14.4548 55.7483 14.4548 55.2069C14.4548 54.6655 14.0159 54.2266 13.4745 54.2266C12.9331 54.2266 12.4941 54.6655 12.4941 55.2069C12.4941 55.7483 12.9331 56.1873 13.4745 56.1873Z" fill="#FFF133"/>
<path d="M33.5164 39.487C34.0579 39.487 34.4968 39.9259 34.4968 40.4674C34.4968 41.0088 34.0579 41.4477 33.5164 41.4477C32.9749 41.4477 32.5361 41.0088 32.5361 40.4674C32.5361 39.9259 32.9753 39.487 33.5164 39.487ZM33.5164 38.9968C32.7057 38.9968 32.0459 39.6566 32.0459 40.4674C32.0459 41.2781 32.7057 41.9379 33.5164 41.9379C34.3272 41.9379 34.9869 41.2781 34.9869 40.4674C34.9869 39.6566 34.3275 38.9968 33.5164 38.9968Z" fill="#FF497F"/>
<path d="M119.308 102.686C119.85 102.686 120.289 103.125 120.289 103.667C120.289 104.208 119.85 104.647 119.308 104.647C118.767 104.647 118.328 104.208 118.328 103.667C118.328 103.125 118.767 102.686 119.308 102.686ZM119.308 102.196C118.498 102.196 117.838 102.856 117.838 103.667C117.838 104.478 118.498 105.137 119.308 105.137C120.119 105.137 120.779 104.478 120.779 103.667C120.779 102.856 120.119 102.196 119.308 102.196Z" fill="#FF497F"/>
<path d="M14.8128 92.613C15.3543 92.613 15.7932 93.0518 15.7932 93.5933C15.7932 94.1348 15.3543 94.5737 14.8128 94.5737C14.2713 94.5737 13.8325 94.1348 13.8325 93.5933C13.8325 93.0522 14.2713 92.613 14.8128 92.613ZM14.8128 92.1228C14.0021 92.1228 13.3423 92.7826 13.3423 93.5933C13.3423 94.4041 14.0021 95.0639 14.8128 95.0639C15.6236 95.0639 16.2833 94.4041 16.2833 93.5933C16.2833 92.7826 15.6236 92.1228 14.8128 92.1228Z" fill="#1F4A9E"/>
<path d="M119.712 64.8581C120.254 64.8581 120.693 65.297 120.693 65.8384C120.693 66.3799 120.254 66.8188 119.712 66.8188C119.171 66.8188 118.732 66.3799 118.732 65.8384C118.732 65.297 119.171 64.8581 119.712 64.8581ZM119.712 64.3679C118.901 64.3679 118.242 65.0277 118.242 65.8384C118.242 66.6492 118.901 67.309 119.712 67.309C120.523 67.309 121.183 66.6492 121.183 65.8384C121.183 65.0277 120.523 64.3679 119.712 64.3679Z" fill="#FFF133"/>
<path d="M103.13 88.8696C103.671 88.8696 104.11 88.4307 104.11 87.8893C104.11 87.3479 103.671 86.9089 103.13 86.9089C102.588 86.9089 102.149 87.3479 102.149 87.8893C102.149 88.4307 102.588 88.8696 103.13 88.8696Z" fill="#1F4A9E"/>
<path d="M130.968 74.8814C131.51 74.8814 131.948 74.4424 131.948 73.901C131.948 73.3596 131.51 72.9207 130.968 72.9207C130.427 72.9207 129.988 73.3596 129.988 73.901C129.988 74.4424 130.427 74.8814 130.968 74.8814Z" fill="#FF609A"/>
<path d="M52.5995 2.71339C53.1409 2.71339 53.5798 2.27447 53.5798 1.73304C53.5798 1.1916 53.1409 0.752686 52.5995 0.752686C52.0581 0.752686 51.6191 1.1916 51.6191 1.73304C51.6191 2.27447 52.0581 2.71339 52.5995 2.71339Z" fill="#FF609A"/>
<path d="M65.1219 16.4692C65.1219 17.1668 64.5562 17.7325 63.8586 17.7325C63.1609 17.7325 62.5952 17.1668 62.5952 16.4692C62.5952 15.7715 63.1609 15.2058 63.8586 15.2058C64.5562 15.2061 65.1219 15.7715 65.1219 16.4692Z" fill="#1F4A9E"/>
<path d="M61.6522 19.304C62.1937 19.304 62.6326 18.865 62.6326 18.3236C62.6326 17.7822 62.1937 17.3433 61.6522 17.3433C61.1108 17.3433 60.6719 17.7822 60.6719 18.3236C60.6719 18.865 61.1108 19.304 61.6522 19.304Z" fill="#FEFFFF"/>
<path d="M87.7582 70.9719C88.2729 70.9719 88.6901 70.5546 88.6901 70.0399C88.6901 69.5252 88.2729 69.1079 87.7582 69.1079C87.2434 69.1079 86.8262 69.5252 86.8262 70.0399C86.8262 70.5546 87.2434 70.9719 87.7582 70.9719Z" fill="#24275E"/>
<path d="M7.93248 41.3315C8.4472 41.3315 8.86446 40.9142 8.86446 40.3995C8.86446 39.8848 8.4472 39.4675 7.93248 39.4675C7.41775 39.4675 7.00049 39.8848 7.00049 40.3995C7.00049 40.9142 7.41775 41.3315 7.93248 41.3315Z" fill="#E5E5FF"/>
<path d="M28.7489 53.1137C29.2636 53.1137 29.6809 52.6965 29.6809 52.1817C29.6809 51.667 29.2636 51.2498 28.7489 51.2498C28.2342 51.2498 27.8169 51.667 27.8169 52.1817C27.8169 52.6965 28.2342 53.1137 28.7489 53.1137Z" fill="#24275E"/>
<path d="M18.1473 70.0774C18.662 70.0774 19.0793 69.6601 19.0793 69.1454C19.0793 68.6306 18.662 68.2134 18.1473 68.2134C17.6326 68.2134 17.2153 68.6306 17.2153 69.1454C17.2153 69.6601 17.6326 70.0774 18.1473 70.0774Z" fill="#1F4A9E"/>
<path d="M123.955 39.4792C124.47 39.4792 124.887 39.0619 124.887 38.5472C124.887 38.0325 124.47 37.6152 123.955 37.6152C123.441 37.6152 123.023 38.0325 123.023 38.5472C123.023 39.0619 123.441 39.4792 123.955 39.4792Z" fill="#E5E5FF"/>
<path d="M26.487 28.5602C26.487 29.0748 26.0697 29.4922 25.555 29.4922C25.0403 29.4922 24.623 29.0748 24.623 28.5602C24.623 28.0455 25.0403 27.6282 25.555 27.6282C26.0697 27.6282 26.487 28.0455 26.487 28.5602Z" fill="#24275E"/>
<path d="M16.2835 97.3894C16.7983 97.3894 17.2155 96.9721 17.2155 96.4574C17.2155 95.9427 16.7983 95.5254 16.2835 95.5254C15.7688 95.5254 15.3516 95.9427 15.3516 96.4574C15.3516 96.9721 15.7688 97.3894 16.2835 97.3894Z" fill="#E5E5FF"/>
<path d="M47.9338 72.432C47.9338 72.9467 47.5165 73.364 47.0018 73.364C46.4871 73.364 46.0698 72.9467 46.0698 72.432C46.0698 71.9173 46.4871 71.5 47.0018 71.5C47.5165 71.5 47.9338 71.917 47.9338 72.432Z" fill="#E5E5FF"/>
<path d="M96.8734 105.066C97.3881 105.066 97.8054 104.648 97.8054 104.134C97.8054 103.619 97.3881 103.202 96.8734 103.202C96.3587 103.202 95.9414 103.619 95.9414 104.134C95.9414 104.648 96.3587 105.066 96.8734 105.066Z" fill="#E5E5FF"/>
<path d="M117.31 64.3371C117.825 64.3371 118.242 63.9199 118.242 63.4051C118.242 62.8904 117.825 62.4731 117.31 62.4731C116.795 62.4731 116.378 62.8904 116.378 63.4051C116.378 63.9199 116.795 64.3371 117.31 64.3371Z" fill="#E5E5FF"/>
<path d="M122.707 105.379C122.707 105.893 122.289 106.311 121.775 106.311C121.26 106.311 120.843 105.893 120.843 105.379C120.843 104.864 121.26 104.447 121.775 104.447C122.289 104.447 122.707 104.864 122.707 105.379Z" fill="#24275E"/>
<path d="M134.846 60.705C135.361 60.705 135.778 60.2878 135.778 59.7731C135.778 59.2583 135.361 58.8411 134.846 58.8411C134.331 58.8411 133.914 59.2583 133.914 59.7731C133.914 60.2878 134.331 60.705 134.846 60.705Z" fill="#24275E"/>
<path d="M109.397 31.5249C109.912 31.5249 110.329 31.1076 110.329 30.5929C110.329 30.0782 109.912 29.6609 109.397 29.6609C108.882 29.6609 108.465 30.0782 108.465 30.5929C108.465 31.1076 108.882 31.5249 109.397 31.5249Z" fill="#24275E"/>
<path d="M9.66335 43.9754C10.4221 43.9754 11.0371 43.3603 11.0371 42.6016C11.0371 41.8429 10.4221 41.2278 9.66335 41.2278C8.90462 41.2278 8.28955 41.8429 8.28955 42.6016C8.28955 43.3603 8.90462 43.9754 9.66335 43.9754Z" fill="#24275E"/>
<path d="M31.2963 84.4282C32.2053 80.421 29.6936 76.4357 25.6864 75.5267C21.6792 74.6178 17.6939 77.1294 16.7849 81.1366C15.876 85.1439 18.3876 89.1292 22.3949 90.0381C26.4021 90.947 30.3874 88.4354 31.2963 84.4282Z" fill="#FF497F"/>
<path d="M24.3101 88.3834C27.7139 88.3834 30.4732 85.6241 30.4732 82.2203C30.4732 78.8165 27.7139 76.0571 24.3101 76.0571C20.9063 76.0571 18.147 78.8165 18.147 82.2203C18.147 85.6241 20.9063 88.3834 24.3101 88.3834Z" fill="#FF609A"/>
<path d="M26.7197 78.5723C26.9158 78.5723 27.1119 78.6471 27.2615 78.7968C27.4122 78.9474 27.4864 79.1484 27.4841 79.3471C27.487 79.3471 27.4903 79.3471 27.4936 79.3471C27.689 79.3471 27.8837 79.4213 28.0347 79.5696C28.3337 79.8686 28.3337 80.3519 28.0347 80.6513C27.8854 80.8006 27.6893 80.8751 27.4932 80.8751C27.3436 80.8751 27.1939 80.8317 27.0655 80.7447L26.5152 81.295C26.7426 81.7019 26.8717 82.1708 26.8717 82.6685C26.8717 83.2021 26.5916 83.6688 26.1681 83.9296L27.0655 84.8269C27.1939 84.74 27.3436 84.6962 27.4932 84.6962C27.6893 84.6962 27.8854 84.7707 28.0347 84.92C28.3337 85.219 28.3337 85.7024 28.0347 86.0017C27.8841 86.15 27.6893 86.2242 27.4936 86.2242C27.4903 86.2242 27.4873 86.2242 27.4841 86.2242C27.4864 86.4229 27.4122 86.6239 27.2615 86.7745C27.1119 86.9242 26.9158 86.9987 26.7197 86.9987C26.524 86.9987 26.3282 86.9239 26.1799 86.7745C25.9142 86.5115 25.8855 86.1046 26.0864 85.8053L25.6054 85.3243C25.5074 85.3962 25.3852 85.4367 25.2561 85.4367C24.9283 85.4367 24.6626 85.1759 24.6532 84.8504V85.1233C24.6532 85.4582 24.3803 85.7288 24.0453 85.7288C23.7104 85.7288 23.4375 85.4586 23.4375 85.1233V84.8289C23.4375 85.1638 23.1673 85.4367 22.832 85.4367C22.7029 85.4367 22.5833 85.3962 22.4849 85.3243L22.0016 85.8053C22.2026 86.1043 22.1739 86.5111 21.9108 86.7745C21.7611 86.9242 21.5651 86.9987 21.369 86.9987C21.1729 86.9987 20.9775 86.9239 20.8291 86.7745C20.6759 86.6239 20.6017 86.4229 20.6043 86.2242C20.6014 86.2242 20.5981 86.2242 20.5952 86.2242C20.3997 86.2242 20.205 86.15 20.054 86.0017C19.755 85.7027 19.755 85.2194 20.054 84.92C20.2033 84.7707 20.3994 84.6962 20.5955 84.6962C20.7452 84.6962 20.8948 84.7396 21.0232 84.8269L21.9206 83.9296C21.4971 83.6688 21.217 83.2021 21.217 82.6685C21.217 82.1708 21.3461 81.7019 21.5736 81.295L21.0232 80.7447C20.8948 80.8317 20.7452 80.8751 20.5955 80.8751C20.3994 80.8751 20.2033 80.8006 20.054 80.6513C19.755 80.3523 19.755 79.8689 20.054 79.5696C20.2047 79.4213 20.3994 79.3471 20.5952 79.3471C20.5981 79.3471 20.6014 79.3471 20.6043 79.3471C20.602 79.1484 20.6762 78.9474 20.8291 78.7968C20.9775 78.6471 21.1732 78.5723 21.369 78.5723C21.5647 78.5723 21.7611 78.6471 21.9108 78.7968C22.1739 79.0598 22.2026 79.4667 22.0016 79.7657L22.5232 80.2872C22.9634 80.0049 23.4852 79.8421 24.045 79.8421C24.6048 79.8421 25.1267 80.0049 25.5646 80.2872L26.0861 79.7657C25.8851 79.4667 25.9139 79.0598 26.1796 78.7968C26.3282 78.6471 26.5237 78.5723 26.7197 78.5723ZM25.2227 83.3332C25.3257 83.3332 25.4214 83.3093 25.5051 83.2662C25.7155 83.1633 25.8616 82.9479 25.8616 82.6966C25.8616 82.4933 25.7659 82.309 25.6152 82.194C25.5077 82.1077 25.3711 82.0577 25.2227 82.0577C24.8711 82.0577 24.5862 82.345 24.5862 82.6966C24.5862 83.0485 24.8711 83.3332 25.2227 83.3332ZM22.8683 83.3332C23.2199 83.3332 23.5048 83.0485 23.5048 82.6966C23.5048 82.345 23.2202 82.0577 22.8683 82.0577C22.7176 82.0577 22.5836 82.1081 22.4735 82.194C22.3252 82.3113 22.2294 82.493 22.2294 82.6966C22.2294 82.9456 22.3729 83.161 22.5836 83.2662C22.6696 83.3093 22.7653 83.3332 22.8683 83.3332ZM26.7197 77.9187C26.3397 77.9187 25.9828 78.0671 25.7159 78.3363C25.4211 78.6281 25.2803 79.0281 25.3048 79.4242C24.9064 79.269 24.4803 79.1886 24.0457 79.1886C23.6107 79.1886 23.1833 79.2693 22.7836 79.4252C22.8081 79.0294 22.6679 78.6291 22.3732 78.3344C22.1052 78.0664 21.7487 77.9187 21.3693 77.9187C20.9893 77.9187 20.6324 78.0671 20.3654 78.3363C20.2328 78.4667 20.1282 78.6252 20.0573 78.7984C19.887 78.868 19.7305 78.9709 19.5955 79.1036C19.039 79.6601 19.039 80.5601 19.5919 81.113C19.8599 81.3806 20.2161 81.5283 20.5955 81.5283C20.6504 81.5283 20.7046 81.5254 20.7586 81.5192C20.6301 81.8868 20.5635 82.2757 20.5635 82.6682C20.5635 83.1381 20.7135 83.5812 20.9827 83.9426L20.8585 84.0668C20.7726 84.0508 20.6844 84.0426 20.5955 84.0426C20.2161 84.0426 19.8599 84.19 19.5919 84.458C19.039 85.0109 19.039 85.9108 19.5919 86.4638C19.7289 86.5987 19.8867 86.7026 20.0576 86.7726C20.1292 86.9471 20.2354 87.1069 20.3707 87.2402C20.6324 87.5039 20.9889 87.6523 21.369 87.6523C21.7481 87.6523 22.1046 87.5046 22.3729 87.2366C22.6817 86.9278 22.8209 86.5033 22.7784 86.0893C22.796 86.0899 22.814 86.0903 22.832 86.0903C22.9536 86.0903 23.0709 86.0729 23.1823 86.0406C23.4081 86.2523 23.7117 86.3821 24.0453 86.3821C24.378 86.3821 24.6813 86.2527 24.9071 86.0419C25.0178 86.0733 25.1348 86.0903 25.2561 86.0903C25.274 86.0903 25.2917 86.0899 25.3097 86.0893C25.2675 86.5043 25.4084 86.9298 25.7198 87.2386C25.9828 87.5039 26.3394 87.6523 26.7197 87.6523C27.0988 87.6523 27.4553 87.5046 27.7236 87.2366C27.8566 87.1036 27.9605 86.9451 28.0311 86.7726C28.2014 86.703 28.3579 86.6 28.4929 86.4674C29.0494 85.9108 29.0494 85.0109 28.4965 84.458C28.2285 84.19 27.8723 84.0426 27.4929 84.0426C27.404 84.0426 27.3158 84.0508 27.2298 84.0668L27.1057 83.9426C27.3749 83.5812 27.5249 83.1381 27.5249 82.6682C27.5249 82.2757 27.4583 81.8868 27.3298 81.5192C27.3838 81.5254 27.438 81.5283 27.4929 81.5283C27.8723 81.5283 28.2288 81.381 28.4965 81.113C29.0494 80.5601 29.0494 79.6601 28.4965 79.1072C28.3595 78.9726 28.2017 78.8687 28.0311 78.7987C27.9605 78.6259 27.8563 78.4674 27.7236 78.3344C27.4553 78.0664 27.0988 77.9187 26.7197 77.9187Z" fill="#FEFFFF"/>
<path d="M33.1127 77.6267C31.8545 77.6267 30.8311 76.6032 30.8311 75.3454C30.8311 74.087 31.8545 73.0635 33.1127 73.0635C34.3708 73.0635 35.3943 74.087 35.3943 75.3454C35.3943 76.6032 34.3708 77.6267 33.1127 77.6267ZM33.1127 74.3706C32.5754 74.3706 32.1382 74.8078 32.1382 75.3454C32.1382 75.8823 32.5754 76.3195 33.1127 76.3195C33.6502 76.3195 34.0871 75.8823 34.0871 75.3454C34.0871 74.8078 33.6499 74.3706 33.1127 74.3706Z" fill="#24275E"/>
<path d="M91.6918 23.3324C90.4336 23.3324 89.4102 22.3089 89.4102 21.0511C89.4102 19.7927 90.4336 18.7695 91.6918 18.7695C92.9499 18.7695 93.9734 19.793 93.9734 21.0511C93.9734 22.3089 92.9499 23.3324 91.6918 23.3324ZM91.6918 20.0763C91.1545 20.0763 90.7173 20.5136 90.7173 21.0508C90.7173 21.588 91.1545 22.0249 91.6918 22.0249C92.2293 22.0249 92.6662 21.5877 92.6662 21.0508C92.6662 20.5136 92.229 20.0763 91.6918 20.0763Z" fill="#FF609A"/>
<path d="M75.8129 9.68649C74.5544 9.68649 73.5312 8.66301 73.5312 7.40489C73.5312 6.14678 74.5547 5.12329 75.8129 5.12329C77.0713 5.12329 78.0948 6.14678 78.0948 7.40489C78.0945 8.66268 77.071 9.68649 75.8129 9.68649ZM75.8129 6.4301C75.2753 6.4301 74.8384 6.86734 74.8384 7.40457C74.8384 7.94213 75.2756 8.37903 75.8129 8.37903C76.3504 8.37903 76.7876 7.9418 76.7876 7.40457C76.7873 6.86734 76.3501 6.4301 75.8129 6.4301Z" fill="#24275E"/>
<path d="M104.927 23.7504C104.868 23.7504 104.807 23.7364 104.752 23.706C104.14 23.3766 102.799 23.1635 101.335 23.1635C99.8707 23.1635 98.5292 23.3766 97.9171 23.706C97.8632 23.7347 97.8031 23.7501 97.742 23.7501C97.5378 23.7501 97.3711 23.5847 97.3711 23.3805C97.3711 23.2282 97.4623 23.0975 97.5936 23.041C98.3246 22.6603 99.7527 22.4243 101.335 22.4243C102.936 22.4243 104.38 22.6658 105.102 23.055C105.282 23.1517 105.349 23.3759 105.252 23.5556C105.185 23.6798 105.058 23.7504 104.927 23.7504Z" fill="#FEFFFF"/>
<path d="M101.335 20.9141C99.728 20.9141 98.284 20.6723 97.5661 20.2831C97.3866 20.1861 97.32 19.9616 97.4174 19.7822C97.5147 19.6028 97.7389 19.5354 97.9183 19.6335C98.5252 19.9625 99.8666 20.1753 101.335 20.1753C102.803 20.1753 104.145 19.9625 104.751 19.6335C104.93 19.5361 105.155 19.6028 105.252 19.7822C105.349 19.9616 105.283 20.1857 105.103 20.2831C104.386 20.6723 102.942 20.9141 101.335 20.9141Z" fill="#FEFFFF"/>
<path d="M101.334 26.0188C100.229 26.0188 99.9346 23.2849 99.9346 21.6693C99.9346 20.054 100.229 17.3198 101.334 17.3198C102.438 17.3198 102.733 20.0537 102.733 21.6693C102.733 23.2849 102.438 26.0188 101.334 26.0188ZM101.334 18.0753C101.081 18.2923 100.673 19.5893 100.673 21.6693C100.673 23.7493 101.081 25.0466 101.334 25.2636C101.586 25.0466 101.994 23.7493 101.994 21.6693C101.994 19.5897 101.586 18.2927 101.334 18.0753Z" fill="#FEFFFF"/>
<path d="M101.334 26.0188C98.9356 26.0188 96.9844 24.0676 96.9844 21.6693C96.9844 19.271 98.9356 17.3198 101.334 17.3198C103.732 17.3198 105.684 19.271 105.684 21.6693C105.683 24.0679 103.732 26.0188 101.334 26.0188ZM101.334 18.0593C99.3434 18.0593 97.7236 19.6789 97.7236 21.6696C97.7236 23.6604 99.3434 25.2799 101.334 25.2799C103.325 25.2799 104.944 23.6604 104.944 21.6696C104.944 19.6789 103.325 18.0593 101.334 18.0593Z" fill="#FEFFFF"/>
<path d="M114.076 16.3089C114.076 16.8674 113.623 17.32 113.065 17.32C112.506 17.32 112.054 16.8674 112.054 16.3089C112.054 15.7504 112.506 15.2979 113.065 15.2979C113.623 15.2979 114.076 15.7508 114.076 16.3089Z" fill="#FFF133"/>
<path d="M116.266 91.5189C118.971 91.5189 121.164 89.3258 121.164 86.6204C121.164 83.915 118.971 81.7219 116.266 81.7219C113.56 81.7219 111.367 83.915 111.367 86.6204C111.367 89.3258 113.56 91.5189 116.266 91.5189Z" fill="#FF9F1D"/>
<path d="M116.266 90.8861C118.971 90.8861 121.164 88.693 121.164 85.9876C121.164 83.2822 118.971 81.0891 116.266 81.0891C113.56 81.0891 111.367 83.2822 111.367 85.9876C111.367 88.693 113.56 90.8861 116.266 90.8861Z" fill="#FFD81D"/>
<path d="M119.832 85.9873C119.832 86.0739 119.828 86.1602 119.822 86.2448C119.689 88.0948 118.149 89.5529 116.266 89.5529C114.384 89.5529 112.843 88.0948 112.711 86.2448C112.705 86.1602 112.701 86.0739 112.701 85.9873C112.701 84.0184 114.298 82.4221 116.266 82.4221C118.235 82.4221 119.832 84.0184 119.832 85.9873Z" fill="#FF9F1D"/>
<path d="M119.821 86.245C119.689 88.095 118.148 89.5531 116.266 89.5531C114.383 89.5531 112.843 88.095 112.71 86.245C112.843 84.3951 114.383 82.937 116.266 82.937C118.148 82.937 119.689 84.3951 119.821 86.245Z" fill="#FFB81D"/>
<path d="M116.266 90.5473C113.722 90.5473 111.652 88.4775 111.652 85.9334C111.652 83.3894 113.722 81.3196 116.266 81.3196C118.81 81.3196 120.879 83.3894 120.879 85.9334C120.879 88.4775 118.81 90.5473 116.266 90.5473ZM116.266 82.1052C114.155 82.1052 112.437 83.8227 112.437 85.9338C112.437 88.0448 114.155 89.762 116.266 89.762C118.377 89.762 120.094 88.0448 120.094 85.9338C120.094 83.8227 118.377 82.1052 116.266 82.1052Z" fill="#FFF93B"/>
<path d="M113.316 82.9496C113.254 82.9496 113.192 82.9277 113.142 82.8826C113.037 82.7872 113.029 82.6248 113.125 82.5196C113.135 82.5088 113.369 82.2516 113.756 82.0056C113.877 81.9288 114.035 81.9647 114.112 82.0843C114.188 82.2046 114.153 82.3637 114.033 82.4402C113.708 82.647 113.508 82.864 113.506 82.866C113.455 82.9215 113.385 82.9496 113.316 82.9496Z" fill="#FEFFFF"/>
<path d="M116.611 87.9355V88.3185C116.611 88.3642 116.574 88.4011 116.528 88.4011H116.116C116.07 88.4011 116.033 88.3642 116.033 88.3185V87.9613C116.033 87.9185 116 87.8835 115.958 87.8796C115.536 87.8404 115.14 87.7211 114.873 87.558C114.838 87.5365 114.826 87.4917 114.843 87.4541L115.089 86.9018C115.109 86.8564 115.163 86.8401 115.207 86.8652C115.498 87.0355 115.883 87.1482 116.24 87.1482C116.635 87.1482 116.789 87.0375 116.789 86.8737C116.789 86.3388 114.872 86.729 114.872 85.4761C114.872 84.9624 115.229 84.5258 115.962 84.4114C116.002 84.4052 116.033 84.3716 116.033 84.3307V83.9543C116.033 83.9085 116.07 83.8716 116.116 83.8716H116.528C116.574 83.8716 116.611 83.9085 116.611 83.9543V84.3176C116.611 84.3598 116.643 84.3944 116.685 84.399C116.988 84.4317 117.284 84.5131 117.524 84.6402C117.562 84.6601 117.577 84.7065 117.56 84.7457L117.329 85.3032C117.311 85.3473 117.259 85.365 117.216 85.3441C116.921 85.1977 116.63 85.1248 116.36 85.1248C115.96 85.1248 115.816 85.2598 115.816 85.4284C115.816 85.944 117.729 85.5584 117.729 86.8018C117.729 87.2966 117.385 87.7283 116.68 87.8554C116.641 87.8619 116.611 87.8953 116.611 87.9355Z" fill="#FF9F1D"/>
<path d="M116.611 87.6378V88.0208C116.611 88.0665 116.574 88.1034 116.528 88.1034H116.116C116.07 88.1034 116.033 88.0665 116.033 88.0208V87.6636C116.033 87.6208 116 87.5858 115.958 87.5819C115.536 87.5427 115.14 87.4234 114.873 87.2603C114.838 87.2388 114.826 87.194 114.843 87.1564L115.089 86.6042C115.109 86.5584 115.163 86.5424 115.207 86.5676C115.498 86.7378 115.883 86.8509 116.24 86.8509C116.635 86.8509 116.789 86.7401 116.789 86.5764C116.789 86.0414 114.872 86.4316 114.872 85.1787C114.872 84.665 115.229 84.2284 115.962 84.1141C116.002 84.1078 116.033 84.0742 116.033 84.0333V83.6569C116.033 83.6111 116.07 83.5742 116.116 83.5742H116.528C116.574 83.5742 116.611 83.6111 116.611 83.6569V84.0203C116.611 84.0624 116.643 84.0971 116.685 84.1016C116.988 84.1343 117.284 84.2157 117.524 84.3428C117.562 84.3627 117.577 84.4091 117.56 84.4484L117.329 85.0059C117.311 85.05 117.259 85.0676 117.216 85.0464C116.921 84.9003 116.63 84.8271 116.36 84.8271C115.96 84.8271 115.816 84.9621 115.816 85.1307C115.816 85.6464 117.729 85.2607 117.729 86.5042C117.729 86.9989 117.385 87.4306 116.68 87.5577C116.641 87.5646 116.611 87.5979 116.611 87.6378Z" fill="#FFFF4D"/>
<path d="M123.573 93.8356C125.408 93.0816 126.284 90.9831 125.53 89.1484C124.776 87.3138 122.678 86.4377 120.843 87.1917C119.008 87.9457 118.132 90.0442 118.886 91.8788C119.64 93.7135 121.739 94.5896 123.573 93.8356Z" fill="#FF9F1D"/>
<path d="M125.759 90.6149C126.076 88.6567 124.745 86.8126 122.787 86.496C120.829 86.1794 118.985 87.5102 118.668 89.4685C118.351 91.4267 119.682 93.2708 121.64 93.5874C123.599 93.904 125.443 92.5732 125.759 90.6149Z" fill="#FFD81D"/>
<path d="M124.83 90.0491C124.83 90.1125 124.827 90.1759 124.823 90.238C124.726 91.5944 123.596 92.6634 122.216 92.6634C120.835 92.6634 119.706 91.5944 119.609 90.238C119.605 90.1759 119.602 90.1125 119.602 90.0491C119.602 88.6054 120.772 87.4348 122.216 87.4348C123.66 87.4348 124.83 88.6054 124.83 90.0491Z" fill="#FF9F1D"/>
<path d="M124.823 90.2379C124.726 91.5944 123.596 92.6633 122.216 92.6633C120.836 92.6633 119.706 91.5944 119.609 90.2379C119.706 88.8814 120.836 87.8125 122.216 87.8125C123.596 87.8125 124.726 88.8814 124.823 90.2379Z" fill="#FFB81D"/>
<path d="M122.216 93.3927C120.351 93.3927 118.833 91.8751 118.833 90.0098C118.833 88.1445 120.351 86.627 122.216 86.627C124.081 86.627 125.599 88.1445 125.599 90.0098C125.599 91.8751 124.081 93.3927 122.216 93.3927ZM122.216 87.2028C120.668 87.2028 119.409 88.4618 119.409 90.0098C119.409 91.5578 120.668 92.8169 122.216 92.8169C123.764 92.8169 125.023 91.5578 125.023 90.0098C125.023 88.4618 123.764 87.2028 122.216 87.2028Z" fill="#FFF93B"/>
<path d="M120.053 87.8221C120.008 87.8221 119.962 87.8061 119.926 87.7731C119.849 87.7031 119.843 87.5839 119.913 87.5068C119.921 87.4989 120.093 87.31 120.376 87.1296C120.465 87.0731 120.581 87.0996 120.637 87.1875C120.693 87.2757 120.667 87.3924 120.579 87.4483C120.34 87.5999 120.194 87.759 120.193 87.7603C120.156 87.8015 120.105 87.8221 120.053 87.8221Z" fill="#FEFFFF"/>
<path d="M122.469 91.4775V91.7582C122.469 91.7919 122.442 91.819 122.408 91.819H122.106C122.072 91.819 122.045 91.7919 122.045 91.7582V91.4961C122.045 91.4648 122.021 91.4393 121.99 91.4363C121.681 91.4076 121.39 91.32 121.195 91.2007C121.169 91.185 121.16 91.152 121.173 91.1246L121.353 90.7197C121.368 90.6864 121.408 90.6746 121.44 90.6929C121.654 90.8177 121.936 90.9004 122.197 90.9004C122.487 90.9004 122.6 90.819 122.6 90.6991C122.6 90.3066 121.194 90.5932 121.194 89.6743C121.194 89.2979 121.456 88.9776 121.993 88.8936C122.023 88.889 122.046 88.8642 122.046 88.8345V88.5583C122.046 88.5247 122.073 88.4976 122.106 88.4976H122.409C122.443 88.4976 122.47 88.5247 122.47 88.5583V88.8247C122.47 88.8557 122.493 88.8809 122.524 88.8841C122.746 88.908 122.963 88.9678 123.139 89.0609C123.167 89.0756 123.178 89.1096 123.166 89.1384L122.996 89.5472C122.983 89.5795 122.945 89.5926 122.913 89.5769C122.697 89.4697 122.484 89.4161 122.286 89.4161C121.993 89.4161 121.887 89.5152 121.887 89.6387C121.887 90.0168 123.289 89.7341 123.289 90.6455C123.289 91.0086 123.037 91.3249 122.521 91.418C122.491 91.4236 122.469 91.4481 122.469 91.4775Z" fill="#FF9F1D"/>
<path d="M122.469 91.2592V91.54C122.469 91.5736 122.442 91.6007 122.408 91.6007H122.106C122.072 91.6007 122.045 91.5736 122.045 91.54V91.2779C122.045 91.2465 122.021 91.221 121.99 91.2181C121.681 91.1893 121.39 91.1017 121.195 90.9825C121.169 90.9668 121.16 90.9338 121.173 90.9063L121.353 90.5014C121.368 90.4681 121.408 90.4563 121.44 90.4746C121.654 90.5995 121.936 90.6821 122.197 90.6821C122.487 90.6821 122.6 90.6008 122.6 90.4808C122.6 90.0884 121.194 90.375 121.194 89.456C121.194 89.0796 121.456 88.7593 121.993 88.6754C122.023 88.6708 122.046 88.6459 122.046 88.6162V88.3401C122.046 88.3067 122.073 88.2793 122.106 88.2793H122.409C122.443 88.2793 122.47 88.3064 122.47 88.3401V88.6064C122.47 88.6375 122.493 88.6626 122.524 88.6659C122.746 88.6897 122.963 88.7495 123.139 88.8427C123.167 88.8574 123.178 88.8914 123.166 88.9201L122.996 89.3289C122.983 89.3613 122.945 89.3744 122.913 89.3587C122.697 89.2515 122.484 89.1979 122.286 89.1979C121.993 89.1979 121.887 89.2969 121.887 89.4204C121.887 89.7985 123.289 89.5158 123.289 90.4276C123.289 90.7903 123.037 91.107 122.521 91.2001C122.491 91.2056 122.469 91.2302 122.469 91.2592Z" fill="#FFFF4D"/>
<path opacity="0.2" d="M107.426 21.0508H110.744C115.599 21.0508 119.535 24.9866 119.535 29.8416C119.535 34.6633 115.651 38.5853 110.829 38.6321L97.625 38.7602" stroke="#8630F4" stroke-width="5" stroke-miterlimit="10" stroke-linecap="round" stroke-linejoin="round" stroke-dasharray="2 8"/>
<path opacity="0.2" d="M33.5784 19.7842H26.2614C19.1624 19.7842 13.4077 25.5392 13.4077 32.6379C13.4077 39.7369 19.1624 45.4916 26.2614 45.4916H35.0186" stroke="#8630F4" stroke-width="5" stroke-miterlimit="10" stroke-linecap="round" stroke-linejoin="round" stroke-dasharray="2 8"/>
<path d="M116.062 97.4949H116.388" stroke="#3B3D79" stroke-width="5" stroke-linecap="round" stroke-linejoin="round"/>
<path opacity="0.2" d="M118.944 97.4949H121.173C126.583 97.4949 130.968 93.1098 130.968 87.7002C130.968 82.2906 126.583 77.9055 121.173 77.9055H117.112" stroke="#8630F4" stroke-width="5" stroke-linecap="round" stroke-linejoin="round" stroke-dasharray="1.96 7.82"/>
<path d="M115.835 77.9055H115.508" stroke="#3B3D79" stroke-width="5" stroke-linecap="round" stroke-linejoin="round"/>
<path opacity="0.2" d="M36.793 65.8914L11.9388 65.945C6.99885 65.9561 3 69.9637 3 74.9037C3 79.8515 7.01094 83.8625 11.9588 83.8625H14.8537" stroke="#8630F4" stroke-width="5" stroke-miterlimit="10" stroke-linecap="round" stroke-linejoin="round" stroke-dasharray="2 8"/>
<path d="M125.864 58.3229H110.62C108.806 58.3229 107.336 56.8531 107.336 55.0397V46.9878C107.336 45.1745 108.806 43.7046 110.62 43.7046H125.864C127.678 43.7046 129.148 45.1745 129.148 46.9878V55.0397C129.147 56.8534 127.677 58.3229 125.864 58.3229Z" fill="#8630F4"/>
<path d="M110.737 61.333L112.105 58.323H116.17L110.737 61.333Z" fill="#8630F4"/>
<path d="M125.173 56.5267H111.311C109.876 56.5267 108.712 55.3627 108.712 53.9272V47.1523C108.712 45.7164 109.876 44.5527 111.311 44.5527H125.173C126.609 44.5527 127.773 45.7167 127.773 47.1523V53.9272C127.773 55.3631 126.609 56.5267 125.173 56.5267Z" fill="#B67CFF"/>
<path d="M121.927 46.9835C122.556 46.9835 123.149 47.2855 123.521 47.7933C124.243 48.7763 124.633 49.9651 124.633 51.1837V53.8156C124.633 54.4966 124.081 55.0453 123.403 55.0453C122.987 55.0453 122.601 54.8391 122.372 54.4894L120.948 52.3212C120.738 52.5604 120.433 52.715 120.09 52.715C119.468 52.715 118.964 52.218 118.946 51.5997H117.539C117.521 52.2183 117.017 52.715 116.395 52.715C116.049 52.715 115.747 52.5604 115.533 52.3212L114.109 54.4894C113.884 54.8391 113.498 55.0453 113.082 55.0453C112.404 55.0453 111.852 54.4966 111.852 53.8156V51.1837C111.852 49.9651 112.243 48.7763 112.96 47.7933C113.336 47.2852 113.925 46.9835 114.558 46.9835C115.096 46.9835 115.615 47.208 115.986 47.5982L116.222 47.8449L118.243 47.8708L120.264 47.8449L120.5 47.5982C120.871 47.208 121.386 46.9835 121.927 46.9835ZM122.129 48.9674C122.372 48.9674 122.571 48.7724 122.571 48.5296C122.571 48.2903 122.372 48.0917 122.129 48.0917C121.89 48.0917 121.691 48.2903 121.691 48.5296C121.691 48.7724 121.89 48.9674 122.129 48.9674ZM113.364 49.8475H113.924V50.4069C113.924 50.5837 114.067 50.7308 114.248 50.7308H114.476C114.653 50.7308 114.8 50.5834 114.8 50.4069V49.8475H115.355C115.536 49.8475 115.679 49.704 115.679 49.5236V49.2991C115.679 49.1187 115.536 48.9753 115.355 48.9753H114.8V48.4158C114.8 48.2354 114.652 48.092 114.476 48.092H114.248C114.067 48.092 113.924 48.2354 113.924 48.4158V48.9753H113.364C113.188 48.9753 113.041 49.1187 113.041 49.2991V49.5236C113.041 49.7037 113.188 49.8475 113.364 49.8475ZM123.005 49.84C123.245 49.84 123.443 49.6449 123.443 49.4021C123.443 49.1629 123.245 48.9642 123.005 48.9642C122.763 48.9642 122.564 49.1629 122.564 49.4021C122.564 49.6449 122.763 49.84 123.005 49.84ZM121.257 49.84C121.5 49.84 121.695 49.6449 121.695 49.4021C121.695 49.1629 121.5 48.9642 121.257 48.9642C121.018 48.9642 120.819 49.1629 120.819 49.4021C120.819 49.6449 121.018 49.84 121.257 49.84ZM122.129 50.7125C122.372 50.7125 122.571 50.5174 122.571 50.2746C122.571 50.0354 122.372 49.8367 122.129 49.8367C121.89 49.8367 121.691 50.0354 121.691 50.2746C121.691 50.5174 121.89 50.7125 122.129 50.7125ZM120.09 52.0745C120.421 52.0745 120.686 51.8059 120.686 51.4781C120.686 51.1468 120.421 50.8781 120.09 50.8781C119.762 50.8781 119.494 51.1468 119.494 51.4781C119.494 51.8059 119.762 52.0745 120.09 52.0745ZM116.394 52.0745C116.722 52.0745 116.99 51.8059 116.99 51.4781C116.99 51.1468 116.722 50.8781 116.394 50.8781C116.063 50.8781 115.798 51.1468 115.798 51.4781C115.798 51.8059 116.063 52.0745 116.394 52.0745ZM121.927 46.063C121.157 46.063 120.408 46.3783 119.865 46.9293L118.242 46.9499L116.619 46.9293C116.077 46.3783 115.328 46.063 114.557 46.063C113.641 46.063 112.767 46.5055 112.219 47.2459C111.387 48.3851 110.931 49.7818 110.931 51.1834V53.8153C110.931 55.0008 111.895 55.9652 113.081 55.9652C113.815 55.9652 114.489 55.5992 114.883 54.9861L115.823 53.5548C116.006 53.6074 116.198 53.6349 116.394 53.6349C117.197 53.6349 117.888 53.1859 118.231 52.5196H118.254C118.597 53.1859 119.288 53.6349 120.09 53.6349C120.284 53.6349 120.475 53.6071 120.657 53.5542L121.603 54.9943C121.999 55.6011 122.673 55.9652 123.403 55.9652C124.589 55.9652 125.553 55.0008 125.553 53.8153V51.1834C125.553 49.7792 125.095 48.3815 124.263 47.2482C123.72 46.5068 122.846 46.063 121.927 46.063Z" fill="#FEFFFF"/>
<path d="M123.441 45.3314H121.731C121.407 45.3314 121.145 45.0689 121.145 44.7448C121.145 44.4209 121.407 44.1582 121.731 44.1582H123.441C123.765 44.1582 124.028 44.4209 124.028 44.7448C124.028 45.0689 123.765 45.3314 123.441 45.3314Z" fill="#8630F4"/>
<path d="M125.114 45.3314H124.956C124.632 45.3314 124.37 45.0689 124.37 44.7448C124.37 44.4209 124.632 44.1582 124.956 44.1582H125.114C125.438 44.1582 125.7 44.4209 125.7 44.7448C125.7 45.0689 125.438 45.3314 125.114 45.3314Z" fill="#8630F4"/>
<path d="M107.649 78.3506L95.6663 87.9025C94.5389 88.7978 93.186 89.3664 91.7579 89.5429C91.4442 89.5821 91.1305 89.5985 90.8168 89.5985C89.4802 89.5985 88.16 89.2586 86.9869 88.5952L80.1833 84.7588L78.7716 81.87L73.0659 70.2039C73.0659 70.2039 79.0787 70.7888 81.9675 72.6253L90.7907 78.3506L101.454 70.2039L106.391 76.6938L107.649 78.3506Z" fill="#FFD81D"/>
<path d="M106.391 76.6938L95.614 85.2816C94.3885 86.262 92.9147 86.8796 91.356 87.0691C91.0129 87.1116 90.6697 87.1312 90.3266 87.1312C88.8724 87.1312 87.4378 86.7587 86.1601 86.0398L78.7716 81.87L73.0659 70.2039C73.0659 70.2039 79.0787 70.7888 81.9675 72.6253L90.7907 78.3506L101.454 70.2039L106.391 76.6938Z" fill="#FFF133"/>
<path d="M105.801 79.1465L100.104 71.8328C99.5877 71.1701 99.7063 70.2139 100.369 69.6976L101.836 68.5551C102.499 68.0388 103.455 68.1575 103.971 68.8205L109.668 76.1342C110.185 76.7969 110.066 77.7531 109.403 78.2694L107.936 79.4119C107.274 79.9282 106.318 79.8092 105.801 79.1465Z" fill="#FEFFFF"/>
<path d="M108.99 78.5815C106.97 79.8877 104.275 79.3096 102.968 77.2904L101.644 75.2421C100.337 73.2226 100.915 70.5266 102.935 69.2205C104.954 67.9143 107.65 68.4924 108.956 70.5116L110.281 72.5599C111.587 74.5791 111.009 77.275 108.99 78.5815Z" fill="#FF497F"/>
<path d="M108.037 77.0038C106.23 78.173 103.817 77.6554 102.647 75.8479L102.172 75.113C101.003 73.3056 101.52 70.8926 103.328 69.7234C105.135 68.5541 107.548 69.0718 108.717 70.8792L109.193 71.6141C110.362 73.4216 109.844 75.8345 108.037 77.0038Z" fill="#FF609A"/>
<path d="M102.767 75.5462C102.52 75.689 102.204 75.6044 102.061 75.357L101.503 74.3904C101.36 74.1434 101.445 73.8274 101.692 73.6846C101.939 73.5418 102.255 73.6267 102.398 73.8738L102.956 74.8404C103.099 75.0874 103.014 75.4034 102.767 75.5462Z" fill="#FF81BA"/>
<path d="M105.136 77.2919C104.809 77.5043 104.371 77.4096 104.162 77.0861L103.832 76.5763L103.659 76.3116C103.45 75.9848 103.541 75.5469 103.868 75.3378C103.986 75.2593 104.12 75.2234 104.25 75.2234C104.482 75.2234 104.708 75.3378 104.842 75.5436L105.015 75.8116L105.345 76.3181C105.352 76.3279 105.358 76.3377 105.361 76.3475C105.548 76.671 105.453 77.0893 105.136 77.2919Z" fill="#D63163"/>
<path d="M105.136 77.2918C104.809 77.5042 104.371 77.4094 104.162 77.0859L103.832 76.5761C103.62 76.2494 103.715 75.8147 104.041 75.6023C104.159 75.5272 104.29 75.4912 104.42 75.4912C104.652 75.4912 104.881 75.6023 105.015 75.8115L105.362 76.3474C105.548 76.6709 105.453 77.0892 105.136 77.2918Z" fill="#BF224C"/>
<path d="M105.275 76.3475C105.465 76.6403 105.381 77.0314 105.088 77.221C104.795 77.4105 104.404 77.3265 104.215 77.0337C104.025 76.7409 104.109 76.3497 104.402 76.1602C104.695 75.9707 105.086 76.0547 105.275 76.3475Z" fill="#FF497F"/>
<path d="M105.145 76.3764C105.289 76.5973 105.225 76.8924 105.004 77.0356C104.783 77.1787 104.488 77.1153 104.345 76.8944C104.202 76.6735 104.265 76.3784 104.486 76.2353C104.707 76.0921 105.002 76.1555 105.145 76.3764Z" fill="#FF609A"/>
<path d="M106.843 66.5226C106.805 66.534 106.766 66.5461 106.727 66.5586C105.127 67.0677 104.096 68.6362 104.271 70.3055C104.367 71.2224 104.6 72.2789 105.11 73.2668C105.945 74.8837 107.7 75.7895 109.51 75.6069C109.535 75.6042 109.56 75.6016 109.586 75.5987C111.9 75.3405 113.641 73.2681 113.369 70.9548C113.362 70.8989 113.355 70.843 113.347 70.7865C112.901 67.6994 109.832 65.6302 106.843 66.5226Z" fill="#C16720"/>
<path d="M107.161 66.7315C107.128 66.7413 107.095 66.7515 107.062 66.7619C105.719 67.1897 104.853 68.5066 105 69.9085C105.081 70.6787 105.277 71.5656 105.705 72.3953C106.406 73.7531 107.88 74.5139 109.4 74.3606C109.421 74.3583 109.442 74.3564 109.464 74.3538C111.408 74.1368 112.869 72.3963 112.641 70.4536C112.635 70.4069 112.629 70.3598 112.622 70.3124C112.248 67.7197 109.671 65.9822 107.161 66.7315Z" fill="#D37E3B"/>
<path d="M81.078 77.5886C80.5699 74.5436 78.4706 71.9856 75.5623 70.9503C74.1185 70.4363 73.0598 70.2026 73.0598 70.2026L69.5066 70.1843L65.9538 70.2026C65.9538 70.2026 64.8951 70.4366 63.451 70.9503C60.5426 71.9856 58.4431 74.5436 57.9352 77.5886L52.709 108.916H69.507H86.3049L81.078 77.5886Z" fill="#FFD81D"/>
<path d="M82.2702 101.464H56.7422C55.8742 101.464 55.2102 100.69 55.3419 99.832L58.7061 77.8829C59.179 75.0402 61.14 72.6521 63.8546 71.6851C65.2026 71.2064 66.1908 70.9897 66.1908 70.9897L69.5063 70.9714L72.8215 70.9897C72.8215 70.9897 73.8097 71.2064 75.158 71.6851C77.8726 72.6521 79.8337 75.0402 80.3065 77.8829L83.6707 99.832C83.8021 100.69 83.1384 101.464 82.2702 101.464Z" fill="#FFF133"/>
<path d="M72.9265 65.2402V70.2041C72.9265 72.1648 71.3351 73.7562 69.3744 73.7562C67.4137 73.7562 65.8223 72.1648 65.8223 70.2041V65.2402H72.9265Z" fill="#D37E3B"/>
<path d="M72.9265 65.2402V70.0864C70.5606 70.2335 68.1882 70.24 65.8223 70.106V65.2402H72.9265Z" fill="#C16720"/>
<path d="M69.5065 101.111C69.1275 102.931 66.9217 104.591 61.9382 103.068L55.811 102.879V95.9934H61.9382C61.9382 95.9934 64.3728 95.5032 66.5851 96.0588C67.6504 96.3267 68.4739 96.9836 68.9902 97.843C68.9902 97.843 68.9935 97.8463 68.9935 97.8495C69.5523 98.7809 69.7484 99.9475 69.5065 101.111Z" fill="#C16720"/>
<path d="M68.9804 99.7482C68.6013 101.568 66.3956 103.232 61.4121 101.709L55.811 101.532V95.9934H61.9382C61.9382 95.9934 64.3728 95.5032 66.5851 96.0588C67.6504 96.3267 68.4739 96.9836 68.9902 97.843C68.9902 97.843 68.9935 97.8463 68.9935 97.8495C69.1144 98.4541 69.1144 99.1011 68.9804 99.7482Z" fill="#D37E3B"/>
<path d="M65.9606 70.2024C65.9606 70.2024 64.9753 70.2174 63.5466 70.5096C59.7873 71.2788 56.5848 73.7271 54.8136 77.1312L46.414 93.9465C45.9699 94.8004 45.7068 95.7395 45.6712 96.7013C45.6702 96.732 45.6689 96.7627 45.6683 96.7937C45.5621 100.496 48.5361 103.558 52.2396 103.597L60.6013 103.72C60.6013 103.72 61.8862 97.6489 60.6957 94.638L55.2127 94.6206L57.9419 77.5887C57.9419 77.5887 58.3432 71.7863 65.9606 70.2024Z" fill="#FFF133"/>
<path d="M60.9094 101.912C60.7558 102.99 60.6022 103.719 60.6022 103.719L52.2398 103.598C48.5374 103.559 45.5636 100.497 45.6682 96.7943C45.6682 96.7616 45.6715 96.7322 45.6715 96.7028C45.7074 95.7388 45.9688 94.8009 46.4133 93.948C46.3512 94.2584 46.3152 94.5754 46.3022 94.8957C46.2989 94.9251 46.2989 94.9578 46.2989 94.9872C46.1911 98.6896 49.1648 101.752 52.8705 101.791L60.9094 101.912Z" fill="#FFD81D"/>
<path d="M60.668 104.054H58.8416C58.3403 104.054 57.9341 103.648 57.9341 103.146V94.9531C57.9341 94.4518 58.3403 94.0457 58.8416 94.0457H60.668C61.1692 94.0457 61.5754 94.4518 61.5754 94.9531V103.146C61.5758 103.647 61.1692 104.054 60.668 104.054Z" fill="#D3D1FF"/>
<path d="M60.4309 103.227H59.0218C58.6715 103.227 58.3872 102.943 58.3872 102.593V95.0826C58.3872 94.732 58.6715 94.448 59.0218 94.448H60.4309C60.7812 94.448 61.0655 94.732 61.0655 95.0826V102.593C61.0655 102.943 60.7812 103.227 60.4309 103.227Z" fill="#E5E5FF"/>
<path d="M60.9343 96.6015C60.735 96.6015 60.5732 96.4398 60.5732 96.2404V95.3477C60.5732 95.1483 60.735 94.9866 60.9343 94.9866C61.1337 94.9866 61.2954 95.1483 61.2954 95.3477V96.2404C61.2954 96.4398 61.1337 96.6015 60.9343 96.6015Z" fill="#FEFFFF"/>
<path d="M96.5726 41.7096V47.6342C93.3832 46.7617 90.1971 50.1668 90.1971 50.1668V44.6343C84.9064 42.5331 84.596 39.1378 84.596 39.1378C81.6909 40.5724 77.2793 40.2228 77.2793 40.2228C77.2826 40.2326 77.2858 40.2456 77.2891 40.2587C77.6714 41.4874 76.7401 42.739 75.4559 42.7946C62.6655 43.3337 56.973 37.0007 56.973 37.0007C55.0123 41.8338 48.8165 43.7945 48.8165 43.7945V50.1668C48.8165 50.1668 45.6303 46.7617 42.4409 47.6342V41.7096C42.4409 32.9976 49.5027 25.9358 58.2148 25.9358H80.7988C89.5108 25.9358 96.5726 32.9976 96.5726 41.7096Z" fill="#204BA0"/>
<path d="M91.8465 42.5877V48.7966C90.8432 49.4731 90.1962 50.1658 90.1962 50.1658V44.6334C84.9056 42.5322 84.5951 39.1369 84.5951 39.1369C81.69 40.5715 77.2785 40.2218 77.2785 40.2218C77.2817 40.2316 77.285 40.2447 77.2883 40.2578C77.6706 41.4865 76.7393 42.7381 75.455 42.7936C62.6647 43.3328 56.9721 36.9997 56.9721 36.9997C55.0114 41.8329 48.8156 43.7936 48.8156 43.7936V50.1658C48.8156 50.1658 48.0967 49.3979 47.002 48.6855V42.2185C47.002 42.2185 54.1095 39.4866 56.4199 33.5718C56.4199 33.5718 62.4248 39.3444 72.4381 39.8385C73.7949 39.9055 74.8835 38.7173 74.6573 37.3778C74.6371 37.2572 74.6112 37.1311 74.5792 36.9994C74.5792 36.9994 80.7881 38.9634 85.1637 35.8818C85.1637 35.8818 86.3303 42.5093 91.8465 42.5877Z" fill="#18388B"/>
<path d="M56.9629 29.7539C56.9629 29.7539 62.8525 36.0439 70.0051 36.5347C71.1368 36.6125 72.1122 35.7409 72.1809 34.6086C72.2214 33.9371 72.1835 33.1509 71.957 32.3535C71.957 32.3535 79.2835 37.4216 85.7956 31.8019C85.7956 31.8019 77.5503 35.5308 69.6316 28.8608C69.6316 28.8608 70.1404 30.2376 70.23 31.9643C70.2973 33.2685 69.0758 34.2586 67.8 33.9809C65.7213 33.5289 62.1597 32.4283 56.9629 29.7539Z" fill="#2060B0"/>
<path d="M90.197 44.6346V58.072C90.197 62.3724 87.2265 66.1043 83.0339 67.0683C74.1323 69.1173 64.8811 69.1173 55.9795 67.0683C53.8815 66.588 52.0908 65.4115 50.8261 63.8201C49.5582 62.2287 48.8164 60.2222 48.8164 58.072V43.7948C48.8164 43.7948 55.0122 41.8341 56.9729 37.001C56.9729 37.001 62.6655 43.334 75.4558 42.7949C76.7401 42.7393 77.6714 41.4877 77.289 40.259C77.2858 40.2459 77.2825 40.2329 77.2792 40.2231C77.2792 40.2231 81.6908 40.5727 84.5959 39.1381C84.5959 39.1381 84.9064 42.5334 90.197 44.6346Z" fill="#D37E3B"/>
<path d="M90.1965 44.6334V46.9176C84.4582 45.8033 83.5824 41.7185 83.5824 41.7185C81.3668 42.3492 79.2035 42.0093 79.2035 42.0093C79.2035 42.1662 79.1904 42.3165 79.1676 42.4603C78.9944 43.457 78.2166 44.2543 77.2428 44.5321C67.9818 47.2019 57.7306 40.5682 57.7306 40.5682C55.4039 44.0387 50.5446 46.3164 48.8159 47.0418V43.7936C48.8159 43.7936 55.0117 41.8329 56.9724 36.9998C56.9724 36.9998 62.665 43.3328 75.4553 42.7936C76.7396 42.7381 77.6709 41.4865 77.2886 40.2578C77.2853 40.2447 77.282 40.2316 77.2788 40.2218C77.2788 40.2218 81.6903 40.5715 84.5954 39.1369C84.5954 39.1369 84.9059 42.5322 90.1965 44.6334Z" fill="#C16720"/>
<path d="M48.8165 50.165C48.8165 50.165 45.0935 46.1894 41.6695 47.9288C39.963 48.7958 39.1375 50.7542 39.4905 52.6358C39.9663 55.1736 41.8672 58.7245 48.8169 58.4983V50.165H48.8165Z" fill="#FFCFA9"/>
<path d="M90.1973 50.165C90.1973 50.165 93.92 46.1894 97.3443 47.9288C99.0508 48.7958 99.8763 50.7542 99.5233 52.6358C99.0475 55.1736 97.1466 58.7245 90.1973 58.4983V50.165Z" fill="#FFCFA9"/>
<path d="M95.5002 41.2215V45.1691H91.252V41.2215C91.252 33.797 85.2131 27.7548 77.7885 27.7548H61.2271C53.8026 27.7548 47.7604 33.797 47.7604 41.2215V45.1691H43.5122V41.2215C43.5122 31.454 51.4596 23.5066 61.2271 23.5066H77.7885C87.5561 23.5066 95.5002 31.454 95.5002 41.2215Z" fill="#FF609A"/>
<path d="M92.7973 41.7901V45.169H91.2517V41.2215C91.2517 33.797 85.2127 27.7547 77.7882 27.7547H61.2268C53.8023 27.7547 47.76 33.797 47.76 41.2215V45.169H46.2144V41.7901C46.2144 33.0388 53.335 25.9182 62.0862 25.9182H76.9255C85.6767 25.9182 92.7973 33.0388 92.7973 41.7901Z" fill="#FF497F"/>
<path d="M62.1686 25.3334H59.9236C59.521 25.3334 59.1948 25.0073 59.1948 24.6047C59.1948 24.2024 59.521 23.876 59.9236 23.876H62.1686C62.5712 23.876 62.8973 24.2021 62.8973 24.6047C62.8973 25.0073 62.5712 25.3334 62.1686 25.3334Z" fill="#FF81BA"/>
<path d="M64.0637 25.3334C63.6611 25.3334 63.335 25.0073 63.335 24.6047C63.335 24.2024 63.6611 23.876 64.0637 23.876C64.4663 23.876 64.7924 24.2021 64.7924 24.6047C64.7924 25.0073 64.466 25.3334 64.0637 25.3334Z" fill="#FF81BA"/>
<path d="M63.7663 66.4328V69.047H47.2212C43.1331 69.047 39.8032 65.7204 39.8032 61.6323V59.1292H42.4175V61.6323C42.4175 64.2793 44.5743 66.4328 47.2212 66.4328H63.7663Z" fill="#D3D1FF"/>
<path d="M63.7665 66.4328V68.1745H48.0972C44.0059 68.1745 40.6792 64.8446 40.6792 60.7565V59.1292H42.4177V61.6323C42.4177 64.2793 44.5745 66.4328 47.2214 66.4328H63.7665Z" fill="#E5E5FF"/>
<path d="M101.297 45.9207V57.1228C101.297 59.0835 99.9542 60.7338 98.1373 61.1946C97.8039 61.2795 97.4576 61.3253 97.0981 61.3253H91.8467V41.7183H97.0981C97.4576 41.7183 97.8039 41.764 98.1373 41.849C99.9542 42.3097 101.297 43.96 101.297 45.9207Z" fill="#FF497F"/>
<path d="M100.706 46.0916V57.0143C100.706 58.3839 100.034 59.5979 99.0017 60.3416C98.4279 60.755 97.625 60.3331 97.625 59.626V43.4799C97.625 42.7724 98.4279 42.3506 99.0017 42.7643C100.034 43.508 100.706 44.722 100.706 46.0916Z" fill="#FF609A"/>
<path d="M100.199 50.2713C99.7783 50.2713 99.4375 49.9305 99.4375 49.5099V46.8398C99.4375 46.4192 99.7783 46.0784 100.199 46.0784C100.619 46.0784 100.96 46.4192 100.96 46.8398V49.5099C100.96 49.9302 100.619 50.2713 100.199 50.2713Z" fill="#FF81BA"/>
<path d="M93.0169 62.8401C94.5744 62.8401 95.8367 61.5777 95.8367 60.0203V43.0229C95.8367 41.4658 94.5744 40.2031 93.0172 40.2031C91.4601 40.2031 90.1978 41.4655 90.1978 43.0229V60.0203C90.1971 61.5777 91.4595 62.8401 93.0169 62.8401Z" fill="#D3D1FF"/>
<path d="M93.0173 59.4826C91.9425 59.4826 91.0713 58.6114 91.0713 57.5366V42.7963C91.0713 41.7215 91.9425 40.8503 93.017 40.8503C94.0918 40.8503 94.9626 41.7215 94.9626 42.7963V57.5366C94.963 58.6114 94.0917 59.4826 93.0173 59.4826Z" fill="#E5E5FF"/>
<path d="M94.5661 46.3585C94.1455 46.3585 93.8047 46.0177 93.8047 45.5971V42.9269C93.8047 42.5064 94.1455 42.1655 94.5661 42.1655C94.9867 42.1655 95.3275 42.5064 95.3275 42.9269V45.5971C95.3275 46.0177 94.9867 46.3585 94.5661 46.3585Z" fill="#FEFFFF"/>
<path d="M65.2953 67.7239C65.2953 68.4232 65.011 69.0572 64.5535 69.5147C64.096 69.9722 63.4654 70.2532 62.766 70.2532H59.459C58.0604 70.2532 56.9297 69.1225 56.9297 67.7239C56.9297 67.5344 56.9493 67.3481 56.9918 67.1716C57.0963 66.6945 57.3382 66.2697 57.6715 65.9364C58.129 65.4789 58.7597 65.1946 59.459 65.1946H62.766C63.9751 65.1946 64.9816 66.041 65.2333 67.1716C65.2757 67.3481 65.2953 67.5344 65.2953 67.7239Z" fill="#FF497F"/>
<path d="M64.2363 66.1941C64.8598 66.8039 64.8778 67.8385 64.2644 68.4587C64.2615 68.4617 64.2582 68.4649 64.2552 68.4679C63.8373 68.8858 63.2612 69.1453 62.6226 69.1453H59.6022C58.9751 69.1453 58.4061 68.8956 57.9902 68.4901C57.3647 67.8806 57.3464 66.8447 57.9601 66.2235C57.9634 66.2203 57.9663 66.2173 57.9696 66.2141C58.3875 65.7961 58.9633 65.5366 59.6022 65.5366H62.6226C63.2514 65.5366 63.8206 65.7873 64.2363 66.1941Z" fill="#FF609A"/>
<path d="M63.0507 66.4381H61.7638C61.4616 66.4381 61.2168 66.193 61.2168 65.891C61.2168 65.5888 61.4616 65.344 61.7638 65.344H63.0507C63.353 65.344 63.5977 65.5891 63.5977 65.891C63.5977 66.193 63.353 66.4381 63.0507 66.4381Z" fill="#FF81BA"/>
<path d="M37.7163 45.9207V57.1228C37.7163 59.0835 39.0594 60.7338 40.8763 61.1946C41.2096 61.2795 41.556 61.3253 41.9155 61.3253H47.1669V41.7183H41.9155C41.556 41.7183 41.2096 41.764 40.8763 41.849C39.0594 42.3097 37.7163 43.96 37.7163 45.9207Z" fill="#FF497F"/>
<path d="M38.3071 46.0916V57.0143C38.3071 58.3839 38.979 59.5979 40.0116 60.3416C40.5855 60.755 41.3884 60.3331 41.3884 59.626V43.4799C41.3884 42.7724 40.5855 42.3506 40.0116 42.7643C38.9793 43.508 38.3071 44.722 38.3071 46.0916Z" fill="#FF609A"/>
<path d="M38.8146 50.2713C39.2352 50.2713 39.576 49.9305 39.576 49.5099V46.8398C39.576 46.4192 39.2352 46.0784 38.8146 46.0784C38.3941 46.0784 38.0532 46.4192 38.0532 46.8398V49.5099C38.0532 49.9302 38.3941 50.2713 38.8146 50.2713Z" fill="#FF81BA"/>
<path d="M45.9971 62.8401C44.4396 62.8401 43.1772 61.5777 43.1772 60.0203V43.0229C43.1772 41.4658 44.4396 40.2031 45.9971 40.2031C47.5542 40.2031 48.8169 41.4655 48.8169 43.0229V60.0203C48.8166 61.5777 47.5542 62.8401 45.9971 62.8401Z" fill="#D3D1FF"/>
<path d="M45.9973 59.4826C47.0721 59.4826 47.9429 58.6114 47.9429 57.5366V42.7963C47.9429 41.7215 47.0717 40.8503 45.9973 40.8503C44.9225 40.8503 44.0513 41.7215 44.0513 42.7963V57.5366C44.0513 58.6114 44.9225 59.4826 45.9973 59.4826Z" fill="#E5E5FF"/>
<path d="M44.4474 46.3585C44.868 46.3585 45.2088 46.0177 45.2088 45.5971V42.9269C45.2088 42.5064 44.868 42.1655 44.4474 42.1655C44.0269 42.1655 43.686 42.5064 43.686 42.9269V45.5971C43.686 46.0177 44.0269 46.3585 44.4474 46.3585Z" fill="#FEFFFF"/>
<path d="M70.9201 57.936H68.0934C66.6504 57.936 65.4805 56.7661 65.4805 55.3227C65.4805 53.8796 66.6504 52.7097 68.0934 52.7097H70.9201C72.3632 52.7097 73.5331 53.8796 73.5331 55.3227C73.5334 56.7658 72.3635 57.936 70.9201 57.936Z" fill="#C16720"/>
<path d="M71.0692 56.8417H67.9436C66.8923 56.8417 66.04 55.9894 66.04 54.9382C66.04 53.8869 66.8923 53.0347 67.9436 53.0347H71.0692C72.1205 53.0347 72.9728 53.8869 72.9728 54.9382C72.9728 55.9894 72.1205 56.8417 71.0692 56.8417Z" fill="#D37E3B"/>
<path d="M70.3829 53.7829H69.5512C69.3231 53.7829 69.1382 53.5979 69.1382 53.3698C69.1382 53.1417 69.3231 52.9568 69.5512 52.9568H70.3829C70.611 52.9568 70.796 53.1417 70.796 53.3698C70.796 53.5976 70.611 53.7829 70.3829 53.7829Z" fill="#EC9450"/>
<path d="M71.3945 53.7829C71.1664 53.7829 70.9814 53.5979 70.9814 53.3698C70.9814 53.1417 71.1664 52.9568 71.3945 52.9568C71.6226 52.9568 71.8076 53.1417 71.8076 53.3698C71.8076 53.5976 71.6226 53.7829 71.3945 53.7829Z" fill="#EC9450"/>
<path d="M83.3567 42.681L77.9942 44.5927C77.8537 44.6417 77.7099 44.6679 77.5694 44.6679C77.0531 44.6679 76.5694 44.3509 76.3766 43.8411C76.3211 43.6973 76.295 43.5437 76.295 43.3967C76.2917 42.913 76.5662 42.4523 77.0302 42.2366L82.1509 39.8544C82.7718 39.5668 83.5071 39.8184 83.8208 40.4262L83.8273 40.4393L84.0626 40.8968C84.4155 41.583 84.0855 42.4229 83.3567 42.681Z" fill="#18388B"/>
<path d="M82.9907 41.7889L77.6282 43.7006C77.4877 43.7496 77.3439 43.7758 77.2034 43.7758C76.8636 43.7758 76.5335 43.6385 76.295 43.3967C76.2917 42.913 76.5662 42.4523 77.0302 42.2366L82.1509 39.8544C82.7718 39.5668 83.5071 39.8184 83.8208 40.4262L83.8273 40.4393C83.8959 41.0112 83.5691 41.583 82.9907 41.7889Z" fill="#184B9E"/>
<path d="M77.7367 61.3503C77.5544 60.8627 77.3135 60.3252 77.0037 59.8216C76.1825 58.4863 74.3578 58.1494 73.1506 59.1494C73.1366 59.1608 73.1229 59.1726 73.1088 59.1844C73.1088 59.1844 71.8523 60.2611 69.5067 60.2611C67.161 60.2611 65.9046 59.1844 65.9046 59.1844C65.8905 59.1726 65.8768 59.1608 65.8627 59.1494C64.6556 58.1491 62.8308 58.486 62.0096 59.8216C61.6998 60.3252 61.459 60.8627 61.2766 61.3503C60.8678 62.443 61.24 63.674 62.1897 64.3524C65.1101 66.4396 69.5067 66.4586 69.5067 66.4586C69.5067 66.4586 73.9029 66.4396 76.8237 64.3524C77.773 63.674 78.1455 62.443 77.7367 61.3503Z" fill="#E5E5FF"/>
<path d="M77.736 61.3502C77.736 61.3502 76.3177 63.8044 69.5076 63.8044C62.6974 63.8044 61.2759 61.3502 61.2759 61.3502C61.4589 60.8633 61.7007 60.3241 62.0111 59.8209C62.8314 58.4844 64.6548 58.1478 65.8639 59.1477C65.877 59.1608 65.8901 59.1739 65.9031 59.1837C65.9031 59.1837 67.1613 60.2621 69.5076 60.2621C71.8506 60.2621 73.1087 59.1837 73.1087 59.1837C73.1218 59.1739 73.1381 59.1608 73.1512 59.1477C74.357 58.1478 76.1837 58.4844 77.004 59.8209C77.3144 60.3241 77.553 60.8633 77.736 61.3502Z" fill="#FEFFFF"/>
<path d="M55.6566 42.681L61.0191 44.5927C61.1596 44.6417 61.3034 44.6679 61.4439 44.6679C61.9602 44.6679 62.4439 44.3509 62.6367 43.8411C62.6922 43.6973 62.7184 43.5437 62.7184 43.3967C62.7216 42.913 62.4471 42.4523 61.9831 42.2366L56.8624 39.8544C56.2415 39.5668 55.5063 39.8184 55.1925 40.4262L55.186 40.4393L54.9507 40.8968C54.5978 41.583 54.9278 42.4229 55.6566 42.681Z" fill="#18388B"/>
<path d="M56.0224 41.7889L61.3849 43.7006C61.5254 43.7496 61.6692 43.7758 61.8097 43.7758C62.1495 43.7758 62.4796 43.6385 62.7181 43.3967C62.7214 42.913 62.4469 42.4523 61.9829 42.2366L56.8622 39.8544C56.2413 39.5668 55.506 39.8184 55.1923 40.4262L55.1858 40.4393C55.1172 41.0112 55.4439 41.583 56.0224 41.7889Z" fill="#184B9E"/>
<path d="M81.0255 57.3241H78.925C77.2505 57.3241 75.8931 55.9667 75.8931 54.2922V49.3898C75.8931 47.7154 77.2505 46.3579 78.925 46.3579H81.0255C82.7 46.3579 84.0574 47.7154 84.0574 49.3898V54.2922C84.0574 55.9667 82.7 57.3241 81.0255 57.3241Z" fill="#FEFFFF"/>
<path d="M79.9758 57.2823C78.6226 57.2823 77.5259 56.1853 77.5259 54.8324V53.7416C77.5259 52.3884 78.6229 51.2917 79.9758 51.2917C81.329 51.2917 82.4257 52.3888 82.4257 53.7416V54.8324C82.4257 56.1857 81.3287 57.2823 79.9758 57.2823Z" fill="#001B3E"/>
<path d="M80.2862 56.1515C79.2928 56.1515 78.4873 55.346 78.4873 54.3526V53.5516C78.4873 52.5582 79.2925 51.7527 80.2862 51.7527C81.2797 51.7527 82.0852 52.5582 82.0852 53.5516V54.3526C82.0852 55.346 81.28 56.1515 80.2862 56.1515Z" fill="#022844"/>
<path d="M83.1729 51.9786C83.1729 52.636 82.64 53.169 81.9825 53.169C81.325 53.169 80.792 52.636 80.792 51.9786C80.792 51.3211 81.325 50.7881 81.9825 50.7881C82.64 50.7881 83.1729 51.3211 83.1729 51.9786Z" fill="#FEFFFF"/>
<path d="M57.988 57.3241H60.0885C61.763 57.3241 63.1204 55.9667 63.1204 54.2922V49.3898C63.1204 47.7154 61.763 46.3579 60.0885 46.3579H57.988C56.3135 46.3579 54.9561 47.7154 54.9561 49.3898V54.2922C54.9561 55.9667 56.3135 57.3241 57.988 57.3241Z" fill="#FEFFFF"/>
<path d="M59.0383 57.2823C57.6851 57.2823 56.5884 56.1853 56.5884 54.8324V53.7416C56.5884 52.3884 57.6854 51.2917 59.0383 51.2917C60.3915 51.2917 61.4882 52.3888 61.4882 53.7416V54.8324C61.4885 56.1857 60.3915 57.2823 59.0383 57.2823Z" fill="#001B3E"/>
<path d="M59.2838 56.1515C58.2904 56.1515 57.4849 55.346 57.4849 54.3526V53.5516C57.4849 52.5582 58.2901 51.7527 59.2838 51.7527C60.2772 51.7527 61.0827 52.5582 61.0827 53.5516V54.3526C61.0824 55.346 60.2772 56.1515 59.2838 56.1515Z" fill="#022844"/>
<path d="M62.1876 51.9786C62.1876 52.636 61.6546 53.169 60.9971 53.169C60.3396 53.169 59.8066 52.636 59.8066 51.9786C59.8066 51.3211 60.3396 50.7881 60.9971 50.7881C61.6546 50.7881 62.1876 51.3211 62.1876 51.9786Z" fill="#FEFFFF"/>
<path d="M75.8916 50.9937V49.3883C75.8916 47.7161 77.2491 46.3586 78.9248 46.3586H81.026C82.7018 46.3586 84.0592 47.7161 84.0592 49.3883V50.9937H75.8916Z" fill="#C16720"/>
<path d="M76.668 50.2591V49.5284C76.668 48.1736 77.7663 47.075 79.1215 47.075H80.826C82.1824 47.075 83.2824 48.1746 83.2824 49.5314V50.2591C83.2824 50.449 83.1285 50.6026 82.9389 50.6026H77.0117C76.8219 50.6026 76.668 50.449 76.668 50.2591Z" fill="#D37E3B"/>
<path d="M76.8028 50.1147H77.7985C77.9873 50.1147 78.1403 50.2677 78.1403 50.4566C78.1403 50.6454 77.9873 50.7984 77.7985 50.7984H76.8028C76.6139 50.7984 76.4609 50.6454 76.4609 50.4566C76.4609 50.2677 76.6139 50.1147 76.8028 50.1147Z" fill="#EC9450"/>
<path d="M63.1222 50.9937V49.3883C63.1222 47.7161 61.7648 46.3586 60.089 46.3586H57.9878C56.312 46.3586 54.9546 47.7161 54.9546 49.3883V50.9937H63.1222Z" fill="#C16720"/>
<path d="M62.3459 50.2591V49.5284C62.3459 48.1736 61.2476 47.075 59.8924 47.075H58.1879C56.8314 47.075 55.7314 48.1746 55.7314 49.5314V50.2591C55.7314 50.449 55.8854 50.6026 56.0749 50.6026H62.0021C62.1923 50.6026 62.3459 50.449 62.3459 50.2591Z" fill="#D37E3B"/>
<path d="M62.2115 50.1147H61.2158C61.027 50.1147 60.874 50.2677 60.874 50.4566C60.874 50.6454 61.027 50.7984 61.2158 50.7984H62.2115C62.4004 50.7984 62.5534 50.6454 62.5534 50.4566C62.5534 50.2677 62.4001 50.1147 62.2115 50.1147Z" fill="#EC9450"/>
<path opacity="0.5" d="M118.034 110.072C118.034 110.856 117.717 111.565 117.204 112.078C116.687 112.591 115.982 112.908 115.197 112.908H23.8155C22.2502 112.908 20.979 111.64 20.979 110.072C20.979 109.699 21.0509 109.346 21.1816 109.019C21.3254 108.66 21.5411 108.333 21.809 108.065C22.3254 107.552 23.0312 107.235 23.8155 107.235H115.197C116.39 107.235 117.413 107.974 117.831 109.019C117.962 109.346 118.034 109.699 118.034 110.072Z" fill="#8630F4"/>
<path d="M117.831 109.019C117.687 109.379 117.472 109.702 117.204 109.97C116.687 110.483 115.982 110.8 115.197 110.8H23.8155C22.6228 110.8 21.5999 110.065 21.1816 109.019C21.3254 108.66 21.5411 108.333 21.8091 108.065C22.3254 107.552 23.0312 107.235 23.8155 107.235H115.197C116.39 107.235 117.413 107.974 117.831 109.019Z" fill="#8630F4"/>
<path d="M94.2897 105.049V107.235H44.7231V105.049C44.7231 104.284 45.344 103.667 46.1087 103.667H92.9041C93.6688 103.667 94.2897 104.284 94.2897 105.049Z" fill="#869AAB"/>
<path d="M94.2897 105.049V105.614H44.7231V105.049C44.7231 104.284 45.344 103.667 46.1087 103.667H92.9041C93.6688 103.667 94.2897 104.284 94.2897 105.049Z" fill="#97A9BA"/>
<path d="M90.264 76.6792L89.7902 92.8942L89.7281 94.9725C89.6954 96.0444 88.8164 96.9006 87.7413 96.9006H51.5402C50.4782 96.9006 49.6024 96.064 49.5534 95.002L49.4521 92.6981L48.7495 76.7086C48.7004 75.578 49.6024 74.6335 50.7363 74.6335H88.2772C89.3981 74.6335 90.2967 75.5583 90.264 76.6792Z" fill="#97A9BA"/>
<path d="M73.6563 98.8335H65.356V102.895H73.6563V98.8335Z" fill="#D3D1FF"/>
<path d="M73.6563 98.8335H65.356V99.8315H73.6563V98.8335Z" fill="#ABB8CF"/>
<path d="M73.0936 100.524V102.139C73.0936 102.271 72.9874 102.377 72.8564 102.377H66.1557C66.0247 102.377 65.9185 102.271 65.9185 102.139V100.524C65.9185 100.393 66.0247 100.287 66.1557 100.287H72.8564C72.9874 100.287 73.0936 100.393 73.0936 100.524Z" fill="#E5E5FF"/>
<path d="M77.3323 104.768V107.235H61.4702V104.768C61.4702 103.732 62.31 102.896 63.3427 102.896H75.4565C76.4925 102.896 77.3323 103.732 77.3323 104.768Z" fill="#C2BFF1"/>
<path d="M77.3323 104.768V105.614H61.4702V104.768C61.4702 104.644 61.4833 104.523 61.5062 104.409C61.6728 103.546 62.4342 102.896 63.3427 102.896H75.4565C76.3683 102.896 77.1297 103.546 77.2963 104.409C77.3192 104.523 77.3323 104.644 77.3323 104.768Z" fill="#D3D1FF"/>
<path d="M76.7733 104.64H62.0288C62.1844 103.835 62.8954 103.228 63.7438 103.228H75.0554C75.9066 103.227 76.6177 103.835 76.7733 104.64Z" fill="#E5E5FF"/>
<path d="M90.2636 78.6121L89.7897 94.8271L89.7276 96.9054C89.695 97.9773 88.8159 98.8334 87.7408 98.8334H51.5397C50.4777 98.8334 49.6019 97.9969 49.5529 96.9348L49.4516 94.631L48.749 78.6415C48.7 77.5108 49.6019 76.5664 50.7358 76.5664H88.2767C89.3976 76.5664 90.2962 77.4912 90.2636 78.6121Z" fill="#D3D1FF"/>
<path d="M89.1605 79.5526L88.7119 94.9058C88.4985 95.7166 87.759 96.3107 86.8832 96.3107H52.3866C51.4461 96.3107 50.6631 95.627 50.5177 94.7202L49.8524 79.5807C49.806 78.5101 50.6599 77.6157 51.7337 77.6157H87.2792C88.3406 77.6157 89.1912 78.4915 89.1605 79.5526Z" fill="#E5E5FF"/>
<path d="M86.2219 78.2197H83.8236C83.49 78.2197 83.2197 77.9495 83.2197 77.6159C83.2197 77.2822 83.49 77.012 83.8236 77.012H86.2219C86.5555 77.012 86.8258 77.2822 86.8258 77.6159C86.8258 77.9495 86.5555 78.2197 86.2219 78.2197Z" fill="#FEFFFF"/>
<path d="M85.7559 107.236V110.629C85.7559 114.2 82.8606 117.096 79.2888 117.096C75.7174 117.096 72.8218 114.201 72.8218 110.629V98.8333" stroke="#5C00D0" stroke-width="3" stroke-miterlimit="10" stroke-linejoin="round"/>
<path d="M102.935 69.22L102.301 68.4736C100.729 66.6221 97.9698 66.3551 96.0712 67.8704C95.0026 68.7233 94.3808 70.0161 94.3808 71.383V98.8331C94.3808 102.043 91.7786 104.645 88.5686 104.645H86.5729C83.3629 104.645 80.7607 102.043 80.7607 98.8331" stroke="#5C00D0" stroke-width="3" stroke-miterlimit="10" stroke-linejoin="round"/>
<path d="M39.8658 92.5771L40.1893 95.4839C40.5576 98.79 38.1767 101.771 34.8673 102.139L30.9799 102.572C27.6706 102.941 24.689 100.557 24.3211 97.2508L24.0472 94.7927C24.0198 94.5447 24.1982 94.3215 24.4459 94.2941L39.8658 92.5771Z" fill="#D3D1FF"/>
<path d="M39.4172 92.6274C39.6649 92.5996 39.8884 92.7783 39.9158 93.026L40.1893 95.4841C40.5576 98.7902 38.1767 101.771 34.8673 102.14L30.9799 102.573C27.6706 102.941 24.689 100.557 24.3211 97.251L24.0472 94.793C24.0198 94.5449 24.1982 94.3217 24.4459 94.2943L39.4172 92.6274Z" fill="#D3D1FF"/>
<path d="M39.5839 93.3665L39.6646 94.0922C40.0159 97.2463 37.7447 100.09 34.5874 100.442L30.8787 100.855C27.7213 101.206 24.8773 98.9319 24.526 95.7778L24.4453 95.052L39.5839 93.3665Z" fill="#E5E5FF"/>
<path d="M27.3636 95.5373L25.8672 95.7039C25.5597 95.7382 25.2826 95.5167 25.2486 95.2092C25.2143 94.9017 25.4359 94.6246 25.7434 94.5906L27.2397 94.4239C27.5472 94.3896 27.8243 94.6112 27.8583 94.9187C27.8926 95.2262 27.6711 95.5033 27.3636 95.5373Z" fill="#FEFFFF"/>
<path d="M40.0965 97.3892C40.0279 97.7257 39.9299 98.0558 39.8024 98.3695H24.5514C24.4567 98.0558 24.3848 97.7257 24.3423 97.3892H40.0965Z" fill="#95A6CF"/>
<path d="M24.1523 98.3694V101.294C24.1523 104.621 26.8483 107.32 30.1782 107.32H34.0898C37.4198 107.32 40.119 104.621 40.119 101.294V98.821C40.119 98.5717 39.9167 98.3694 39.6674 98.3694H24.1523Z" fill="#D3D1FF"/>
<path d="M24.604 98.3694C24.3546 98.3694 24.1523 98.5717 24.1523 98.821V101.294C24.1523 104.621 26.8483 107.32 30.1782 107.32H34.0898C37.4198 107.32 40.119 104.621 40.119 101.294V98.821C40.119 98.5717 39.9167 98.3694 39.6674 98.3694H24.604Z" fill="#D3D1FF"/>
<path d="M24.5195 99.1223V99.8524C24.5195 103.026 27.0913 105.601 30.268 105.601H33.9995C37.1762 105.601 39.7512 103.026 39.7512 99.8524V99.1223H24.5195Z" fill="#E5E5FF"/>
<path d="M36.9048 99.9276H38.4103C38.7198 99.9276 38.9704 99.6766 38.9704 99.3675C38.9704 99.058 38.7195 98.8074 38.4103 98.8074H36.9048C36.5954 98.8074 36.3447 99.0583 36.3447 99.3675C36.3447 99.6766 36.5957 99.9276 36.9048 99.9276Z" fill="#FEFFFF"/>
<path d="M24.9624 98.3694V100.108C24.9624 100.598 25.3611 100.997 25.8513 100.997C26.3447 100.997 26.7401 100.598 26.7401 100.108V99.7517C26.7466 99.4804 26.9689 99.2582 27.2466 99.2582C27.5211 99.2582 27.7466 99.4837 27.7466 99.7615V102.281C27.7466 103.167 28.4655 103.882 29.3478 103.882C30.2334 103.882 30.9491 103.167 30.9491 102.281V98.3694H24.9624Z" fill="#FF497F"/>
<path d="M29.4816 103.022C28.8761 103.022 28.3853 102.531 28.3853 101.925V99.7587C28.3853 99.1532 28.8761 98.6624 29.4816 98.6624C30.0871 98.6624 30.578 99.1532 30.578 99.7587V101.925C30.578 102.531 30.0871 103.022 29.4816 103.022Z" fill="#FF609A"/>
<path d="M30.4204 100.974C30.2174 100.974 30.0527 100.809 30.0527 100.606V99.7351C30.0527 99.5321 30.2174 99.3674 30.4204 99.3674C30.6233 99.3674 30.788 99.5321 30.788 99.7351V100.606C30.788 100.809 30.6233 100.974 30.4204 100.974Z" fill="#FF81BA"/>
<path d="M25.8558 100.632C25.5003 100.632 25.2124 100.344 25.2124 99.9889V99.3063C25.2124 98.9507 25.5006 98.6628 25.8558 98.6628C26.2114 98.6628 26.4993 98.9511 26.4993 99.3063V99.9889C26.4993 100.344 26.2111 100.632 25.8558 100.632Z" fill="#FF609A"/>
<path d="M110.523 95.2991C110.85 95.2991 111.115 95.5644 111.115 95.8919V104.957C111.115 106.216 110.096 107.235 108.841 107.235H103.257C102.002 107.235 100.983 106.216 100.983 104.957V95.8919C100.983 95.5644 101.248 95.2991 101.576 95.2991H110.523Z" fill="#D3D1FF"/>
<path d="M110.53 95.9424V103.274C110.53 104.387 109.629 105.288 108.519 105.288H103.58C102.47 105.288 101.568 104.387 101.568 103.274V95.9424H110.53Z" fill="#E5E5FF"/>
<path d="M103.681 96.4265H102.448C102.211 96.4265 102.019 96.2344 102.019 95.9974C102.019 95.7605 102.211 95.5684 102.448 95.5684H103.681C103.918 95.5684 104.11 95.7605 104.11 95.9974C104.11 96.2344 103.918 96.4265 103.681 96.4265Z" fill="#FEFFFF"/>
<path d="M111.077 97.9717H111.277C112.955 97.9717 114.315 99.3321 114.315 101.01C114.315 102.689 112.955 104.049 111.277 104.049H111.077" stroke="#D3D1FF" stroke-width="3.8256" stroke-miterlimit="10"/>
</svg>
