<svg width="274" height="30" viewBox="0 0 274 30" fill="none" xmlns="http://www.w3.org/2000/svg">
<path d="M5.65601 15C5.65601 6.71573 12.3717 0 20.656 0H261.803V30H20.656C12.3717 30 5.65601 23.2843 5.65601 15Z" fill="white"/>
<g opacity="0.05">
<path d="M0.428711 0H3.9137L21.3387 30H17.8537L0.428711 0Z" fill="url(#paint0_linear_569_3487)"/>
<path d="M9.14087 0H12.6259L30.0508 30H26.5658L9.14087 0Z" fill="url(#paint1_linear_569_3487)"/>
<path d="M17.8533 0H21.3383L38.7632 30H35.2782L17.8533 0Z" fill="url(#paint2_linear_569_3487)"/>
<path d="M26.5654 0H30.0504L47.4754 30H43.9904L26.5654 0Z" fill="url(#paint3_linear_569_3487)"/>
<path d="M35.2788 0H38.7638L56.1888 30H52.7038L35.2788 0Z" fill="url(#paint4_linear_569_3487)"/>
<path d="M43.991 0H47.476L64.9009 30H61.4159L43.991 0Z" fill="url(#paint5_linear_569_3487)"/>
<path d="M52.7036 0H56.1886L73.6136 30H70.1286L52.7036 0Z" fill="url(#paint6_linear_569_3487)"/>
<path d="M61.416 0H64.901L82.326 30H78.841L61.416 0Z" fill="url(#paint7_linear_569_3487)"/>
<path d="M70.1282 0H73.6132L91.0381 30H87.5531L70.1282 0Z" fill="url(#paint8_linear_569_3487)"/>
<path d="M78.8416 0H82.3265L99.7515 30H96.2665L78.8416 0Z" fill="url(#paint9_linear_569_3487)"/>
<path d="M87.5537 0H91.0387L108.464 30H104.979L87.5537 0Z" fill="url(#paint10_linear_569_3487)"/>
<path d="M96.2659 0H99.7509L117.176 30H113.691L96.2659 0Z" fill="url(#paint11_linear_569_3487)"/>
<path d="M104.978 0H108.463L125.888 30H122.403L104.978 0Z" fill="url(#paint12_linear_569_3487)"/>
<path d="M113.69 0H117.175L134.6 30H131.115L113.69 0Z" fill="url(#paint13_linear_569_3487)"/>
<path d="M122.404 0H125.889L143.314 30H139.829L122.404 0Z" fill="url(#paint14_linear_569_3487)"/>
<path d="M131.116 0H134.601L152.026 30H148.541L131.116 0Z" fill="url(#paint15_linear_569_3487)"/>
<path d="M139.828 0H143.313L160.738 30H157.253L139.828 0Z" fill="url(#paint16_linear_569_3487)"/>
<path d="M148.541 0H152.026L169.451 30H165.966L148.541 0Z" fill="url(#paint17_linear_569_3487)"/>
<path d="M157.253 0H160.738L178.163 30H174.678L157.253 0Z" fill="url(#paint18_linear_569_3487)"/>
<path d="M165.966 0H169.451L186.876 30H183.391L165.966 0Z" fill="url(#paint19_linear_569_3487)"/>
<path d="M174.679 0H178.164L195.589 30H192.104L174.679 0Z" fill="url(#paint20_linear_569_3487)"/>
<path d="M183.391 0H186.876L204.301 30H200.816L183.391 0Z" fill="url(#paint21_linear_569_3487)"/>
<path d="M192.103 0H195.588L213.013 30H209.528L192.103 0Z" fill="url(#paint22_linear_569_3487)"/>
<path d="M200.815 0H204.3L221.725 30H218.24L200.815 0Z" fill="url(#paint23_linear_569_3487)"/>
<path d="M209.528 0H213.013L230.438 30H226.953L209.528 0Z" fill="url(#paint24_linear_569_3487)"/>
<path d="M218.241 0H221.726L239.151 30H235.666L218.241 0Z" fill="url(#paint25_linear_569_3487)"/>
<path d="M226.953 0H230.438L247.863 30H244.378L226.953 0Z" fill="url(#paint26_linear_569_3487)"/>
<path d="M235.666 0H239.151L256.576 30H253.091L235.666 0Z" fill="url(#paint27_linear_569_3487)"/>
<path d="M244.378 0H247.863L265.288 30H261.803L244.378 0Z" fill="url(#paint28_linear_569_3487)"/>
<path d="M253.09 0H256.575L274 30H270.515L253.09 0Z" fill="url(#paint29_linear_569_3487)"/>
</g>
<defs>
<linearGradient id="paint0_linear_569_3487" x1="10.8837" y1="0" x2="10.8837" y2="30" gradientUnits="userSpaceOnUse">
<stop stop-color="#191C1A"/>
<stop offset="1" stop-color="#191C1A" stop-opacity="0"/>
</linearGradient>
<linearGradient id="paint1_linear_569_3487" x1="19.5958" y1="0" x2="19.5958" y2="30" gradientUnits="userSpaceOnUse">
<stop stop-color="#191C1A"/>
<stop offset="1" stop-color="#191C1A" stop-opacity="0"/>
</linearGradient>
<linearGradient id="paint2_linear_569_3487" x1="28.3083" y1="0" x2="28.3083" y2="30" gradientUnits="userSpaceOnUse">
<stop stop-color="#191C1A"/>
<stop offset="1" stop-color="#191C1A" stop-opacity="0"/>
</linearGradient>
<linearGradient id="paint3_linear_569_3487" x1="37.0204" y1="0" x2="37.0204" y2="30" gradientUnits="userSpaceOnUse">
<stop stop-color="#191C1A"/>
<stop offset="1" stop-color="#191C1A" stop-opacity="0"/>
</linearGradient>
<linearGradient id="paint4_linear_569_3487" x1="45.7338" y1="0" x2="45.7338" y2="30" gradientUnits="userSpaceOnUse">
<stop stop-color="#191C1A"/>
<stop offset="1" stop-color="#191C1A" stop-opacity="0"/>
</linearGradient>
<linearGradient id="paint5_linear_569_3487" x1="54.4459" y1="0" x2="54.4459" y2="30" gradientUnits="userSpaceOnUse">
<stop stop-color="#191C1A"/>
<stop offset="1" stop-color="#191C1A" stop-opacity="0"/>
</linearGradient>
<linearGradient id="paint6_linear_569_3487" x1="63.1586" y1="0" x2="63.1586" y2="30" gradientUnits="userSpaceOnUse">
<stop stop-color="#191C1A"/>
<stop offset="1" stop-color="#191C1A" stop-opacity="0"/>
</linearGradient>
<linearGradient id="paint7_linear_569_3487" x1="71.871" y1="0" x2="71.871" y2="30" gradientUnits="userSpaceOnUse">
<stop stop-color="#191C1A"/>
<stop offset="1" stop-color="#191C1A" stop-opacity="0"/>
</linearGradient>
<linearGradient id="paint8_linear_569_3487" x1="80.5832" y1="0" x2="80.5832" y2="30" gradientUnits="userSpaceOnUse">
<stop stop-color="#191C1A"/>
<stop offset="1" stop-color="#191C1A" stop-opacity="0"/>
</linearGradient>
<linearGradient id="paint9_linear_569_3487" x1="89.2965" y1="0" x2="89.2965" y2="30" gradientUnits="userSpaceOnUse">
<stop stop-color="#191C1A"/>
<stop offset="1" stop-color="#191C1A" stop-opacity="0"/>
</linearGradient>
<linearGradient id="paint10_linear_569_3487" x1="98.0087" y1="0" x2="98.0087" y2="30" gradientUnits="userSpaceOnUse">
<stop stop-color="#191C1A"/>
<stop offset="1" stop-color="#191C1A" stop-opacity="0"/>
</linearGradient>
<linearGradient id="paint11_linear_569_3487" x1="106.721" y1="0" x2="106.721" y2="30" gradientUnits="userSpaceOnUse">
<stop stop-color="#191C1A"/>
<stop offset="1" stop-color="#191C1A" stop-opacity="0"/>
</linearGradient>
<linearGradient id="paint12_linear_569_3487" x1="115.433" y1="0" x2="115.433" y2="30" gradientUnits="userSpaceOnUse">
<stop stop-color="#191C1A"/>
<stop offset="1" stop-color="#191C1A" stop-opacity="0"/>
</linearGradient>
<linearGradient id="paint13_linear_569_3487" x1="124.145" y1="0" x2="124.145" y2="30" gradientUnits="userSpaceOnUse">
<stop stop-color="#191C1A"/>
<stop offset="1" stop-color="#191C1A" stop-opacity="0"/>
</linearGradient>
<linearGradient id="paint14_linear_569_3487" x1="132.859" y1="0" x2="132.859" y2="30" gradientUnits="userSpaceOnUse">
<stop stop-color="#191C1A"/>
<stop offset="1" stop-color="#191C1A" stop-opacity="0"/>
</linearGradient>
<linearGradient id="paint15_linear_569_3487" x1="141.571" y1="0" x2="141.571" y2="30" gradientUnits="userSpaceOnUse">
<stop stop-color="#191C1A"/>
<stop offset="1" stop-color="#191C1A" stop-opacity="0"/>
</linearGradient>
<linearGradient id="paint16_linear_569_3487" x1="150.283" y1="0" x2="150.283" y2="30" gradientUnits="userSpaceOnUse">
<stop stop-color="#191C1A"/>
<stop offset="1" stop-color="#191C1A" stop-opacity="0"/>
</linearGradient>
<linearGradient id="paint17_linear_569_3487" x1="158.996" y1="0" x2="158.996" y2="30" gradientUnits="userSpaceOnUse">
<stop stop-color="#191C1A"/>
<stop offset="1" stop-color="#191C1A" stop-opacity="0"/>
</linearGradient>
<linearGradient id="paint18_linear_569_3487" x1="167.708" y1="0" x2="167.708" y2="30" gradientUnits="userSpaceOnUse">
<stop stop-color="#191C1A"/>
<stop offset="1" stop-color="#191C1A" stop-opacity="0"/>
</linearGradient>
<linearGradient id="paint19_linear_569_3487" x1="176.421" y1="0" x2="176.421" y2="30" gradientUnits="userSpaceOnUse">
<stop stop-color="#191C1A"/>
<stop offset="1" stop-color="#191C1A" stop-opacity="0"/>
</linearGradient>
<linearGradient id="paint20_linear_569_3487" x1="185.134" y1="0" x2="185.134" y2="30" gradientUnits="userSpaceOnUse">
<stop stop-color="#191C1A"/>
<stop offset="1" stop-color="#191C1A" stop-opacity="0"/>
</linearGradient>
<linearGradient id="paint21_linear_569_3487" x1="193.846" y1="0" x2="193.846" y2="30" gradientUnits="userSpaceOnUse">
<stop stop-color="#191C1A"/>
<stop offset="1" stop-color="#191C1A" stop-opacity="0"/>
</linearGradient>
<linearGradient id="paint22_linear_569_3487" x1="202.558" y1="0" x2="202.558" y2="30" gradientUnits="userSpaceOnUse">
<stop stop-color="#191C1A"/>
<stop offset="1" stop-color="#191C1A" stop-opacity="0"/>
</linearGradient>
<linearGradient id="paint23_linear_569_3487" x1="211.27" y1="0" x2="211.27" y2="30" gradientUnits="userSpaceOnUse">
<stop stop-color="#191C1A"/>
<stop offset="1" stop-color="#191C1A" stop-opacity="0"/>
</linearGradient>
<linearGradient id="paint24_linear_569_3487" x1="219.983" y1="0" x2="219.983" y2="30" gradientUnits="userSpaceOnUse">
<stop stop-color="#191C1A"/>
<stop offset="1" stop-color="#191C1A" stop-opacity="0"/>
</linearGradient>
<linearGradient id="paint25_linear_569_3487" x1="228.696" y1="0" x2="228.696" y2="30" gradientUnits="userSpaceOnUse">
<stop stop-color="#191C1A"/>
<stop offset="1" stop-color="#191C1A" stop-opacity="0"/>
</linearGradient>
<linearGradient id="paint26_linear_569_3487" x1="237.408" y1="0" x2="237.408" y2="30" gradientUnits="userSpaceOnUse">
<stop stop-color="#191C1A"/>
<stop offset="1" stop-color="#191C1A" stop-opacity="0"/>
</linearGradient>
<linearGradient id="paint27_linear_569_3487" x1="246.121" y1="0" x2="246.121" y2="30" gradientUnits="userSpaceOnUse">
<stop stop-color="#191C1A"/>
<stop offset="1" stop-color="#191C1A" stop-opacity="0"/>
</linearGradient>
<linearGradient id="paint28_linear_569_3487" x1="254.833" y1="0" x2="254.833" y2="30" gradientUnits="userSpaceOnUse">
<stop stop-color="#191C1A"/>
<stop offset="1" stop-color="#191C1A" stop-opacity="0"/>
</linearGradient>
<linearGradient id="paint29_linear_569_3487" x1="263.545" y1="0" x2="263.545" y2="30" gradientUnits="userSpaceOnUse">
<stop stop-color="#191C1A"/>
<stop offset="1" stop-color="#191C1A" stop-opacity="0"/>
</linearGradient>
</defs>
</svg>
