<svg width="117" height="132" viewBox="0 0 117 132" fill="none" xmlns="http://www.w3.org/2000/svg">
<path d="M53.5862 2.31927C56.627 0.560244 60.3735 0.560244 63.4144 2.31927L111.086 29.8957C114.127 31.6548 116 34.9056 116 38.4237V93.5765C116 97.0946 114.127 100.345 111.086 102.105L63.4144 129.681C60.3735 131.44 56.627 131.44 53.5862 129.681L5.91411 102.105C2.87325 100.345 1 97.0946 1 93.5765V38.4237C1 34.9056 2.87325 31.6548 5.91411 29.8957L53.5862 2.31927Z" stroke="url(#paint0_linear_2026_2162)" stroke-opacity="0.2"/>
<path opacity="0.7" d="M54.1363 14.309C57.1459 12.5637 60.8541 12.5637 63.8637 14.309L101.136 35.9237C104.146 37.669 106 40.8946 106 44.3854V87.6146C106 91.1054 104.146 94.3309 101.136 96.0763L63.8637 117.691C60.8541 119.436 57.1459 119.436 54.1363 117.691L16.8637 96.0763C13.854 94.3309 12 91.1054 12 87.6146V44.3854C12 40.8946 13.854 37.669 16.8637 35.9237L54.1363 14.309Z" fill="#121212" stroke="url(#paint1_linear_2026_2162)"/>
<path d="M53.9223 24.2255C56.755 22.5915 60.245 22.5915 63.0778 24.2255L92.4223 41.152C95.255 42.7859 97 45.8056 97 49.0736V82.9264C97 86.1944 95.255 89.2141 92.4223 90.8481L63.0778 107.774C60.245 109.409 56.755 109.409 53.9223 107.774L24.5777 90.8481C21.745 89.2141 20 86.1944 20 82.9264V49.0736C20 45.8056 21.745 42.7859 24.5777 41.152L53.9223 24.2255Z" fill="url(#paint2_linear_2026_2162)" fill-opacity="0.06" stroke="url(#paint3_linear_2026_2162)" stroke-width="2"/>
<path d="M44.6666 63.333C44.313 63.333 43.9738 63.1925 43.7238 62.9425C43.4737 62.6924 43.3333 62.3533 43.3333 61.9997V57.9997C43.3354 56.2322 44.0384 54.5378 45.2882 53.288C46.538 52.0382 48.2325 51.3351 49.9999 51.333H53.9999C54.3535 51.333 54.6927 51.4735 54.9427 51.7235C55.1928 51.9736 55.3333 52.3127 55.3333 52.6663C55.3333 53.02 55.1928 53.3591 54.9427 53.6092C54.6927 53.8592 54.3535 53.9997 53.9999 53.9997H49.9999C48.9394 54.0007 47.9226 54.4225 47.1727 55.1724C46.4227 55.9223 46.001 56.9391 45.9999 57.9997V61.9997C45.9999 62.3533 45.8594 62.6924 45.6094 62.9425C45.3593 63.1925 45.0202 63.333 44.6666 63.333ZM72.6666 61.9997V57.9997C72.6645 56.2322 71.9614 54.5378 70.7116 53.288C69.4618 52.0382 67.7674 51.3351 65.9999 51.333H61.9999C61.6463 51.333 61.3072 51.4735 61.0571 51.7235C60.8071 51.9736 60.6666 52.3127 60.6666 52.6663C60.6666 53.02 60.8071 53.3591 61.0571 53.6092C61.3072 53.8592 61.6463 53.9997 61.9999 53.9997H65.9999C67.0605 54.0007 68.0773 54.4225 68.8272 55.1724C69.5771 55.9223 69.9989 56.9391 69.9999 57.9997V61.9997C69.9999 62.3533 70.1404 62.6924 70.3904 62.9425C70.6405 63.1925 70.9796 63.333 71.3333 63.333C71.6869 63.333 72.026 63.1925 72.2761 62.9425C72.5261 62.6924 72.6666 62.3533 72.6666 61.9997ZM72.6666 73.9997V69.9997C72.6666 69.6461 72.5261 69.3069 72.2761 69.0569C72.026 68.8068 71.6869 68.6663 71.3333 68.6663C70.9796 68.6663 70.6405 68.8068 70.3904 69.0569C70.1404 69.3069 69.9999 69.6461 69.9999 69.9997V73.9997C69.9989 75.0602 69.5771 76.077 68.8272 76.8269C68.0773 77.5769 67.0605 77.9986 65.9999 77.9997H61.9999C61.6463 77.9997 61.3072 78.1402 61.0571 78.3902C60.8071 78.6402 60.6666 78.9794 60.6666 79.333C60.6666 79.6866 60.8071 80.0258 61.0571 80.2758C61.3072 80.5259 61.6463 80.6663 61.9999 80.6663H65.9999C67.7674 80.6642 69.4618 79.9612 70.7116 78.7114C71.9614 77.4616 72.6645 75.7671 72.6666 73.9997ZM55.3333 79.333C55.3333 78.9794 55.1928 78.6402 54.9427 78.3902C54.6927 78.1402 54.3535 77.9997 53.9999 77.9997H49.9999C48.9394 77.9986 47.9226 77.5769 47.1727 76.8269C46.4227 76.077 46.001 75.0602 45.9999 73.9997V69.9997C45.9999 69.6461 45.8594 69.3069 45.6094 69.0569C45.3593 68.8068 45.0202 68.6663 44.6666 68.6663C44.313 68.6663 43.9738 68.8068 43.7238 69.0569C43.4737 69.3069 43.3333 69.6461 43.3333 69.9997V73.9997C43.3354 75.7671 44.0384 77.4616 45.2882 78.7114C46.538 79.9612 48.2325 80.6642 49.9999 80.6663H53.9999C54.3535 80.6663 54.6927 80.5259 54.9427 80.2758C55.1928 80.0258 55.3333 79.6866 55.3333 79.333ZM64.6666 65.9997C64.6666 64.6811 64.2756 63.3922 63.5431 62.2959C62.8105 61.1995 61.7693 60.3451 60.5511 59.8405C59.333 59.3359 57.9925 59.2039 56.6993 59.4611C55.4061 59.7183 54.2182 60.3533 53.2859 61.2856C52.3535 62.218 51.7186 63.4059 51.4614 64.6991C51.2041 65.9923 51.3361 67.3327 51.8407 68.5509C52.3453 69.7691 53.1998 70.8103 54.2961 71.5428C55.3924 72.2754 56.6814 72.6663 57.9999 72.6663C59.7674 72.6642 61.4618 71.9612 62.7116 70.7114C63.9614 69.4616 64.6645 67.7671 64.6666 65.9997ZM61.9999 65.9997C61.9999 66.7908 61.7653 67.5642 61.3258 68.222C60.8863 68.8798 60.2616 69.3924 59.5307 69.6952C58.7997 69.9979 57.9955 70.0772 57.2196 69.9228C56.4436 69.7685 55.7309 69.3875 55.1715 68.8281C54.6121 68.2687 54.2311 67.556 54.0768 66.78C53.9224 66.0041 54.0017 65.1998 54.3044 64.4689C54.6072 63.738 55.1198 63.1133 55.7776 62.6738C56.4354 62.2343 57.2088 61.9997 57.9999 61.9997C59.0605 62.0007 60.0773 62.4225 60.8272 63.1724C61.5771 63.9223 61.9989 64.9391 61.9999 65.9997Z" fill="url(#paint4_linear_2026_2162)"/>
<defs>
<linearGradient id="paint0_linear_2026_2162" x1="58.5003" y1="-1.19198" x2="125.24" y2="-0.669097" gradientUnits="userSpaceOnUse">
<stop stop-color="#0088CC"/>
<stop offset="1" stop-color="#20BEE1"/>
</linearGradient>
<linearGradient id="paint1_linear_2026_2162" x1="59" y1="10.825" x2="113.667" y2="11.2522" gradientUnits="userSpaceOnUse">
<stop stop-color="#0088CC"/>
<stop offset="1" stop-color="#20BEE1"/>
</linearGradient>
<linearGradient id="paint2_linear_2026_2162" x1="48.2001" y1="26.5533" x2="76.1931" y2="104.32" gradientUnits="userSpaceOnUse">
<stop stop-color="white"/>
<stop offset="1" stop-color="white" stop-opacity="0"/>
</linearGradient>
<linearGradient id="paint3_linear_2026_2162" x1="58.5" y1="20.2648" x2="104.057" y2="20.6228" gradientUnits="userSpaceOnUse">
<stop stop-color="#0088CC"/>
<stop offset="1" stop-color="#20BEE1"/>
</linearGradient>
<linearGradient id="paint4_linear_2026_2162" x1="72.6666" y1="65.9997" x2="43.3333" y2="65.9997" gradientUnits="userSpaceOnUse">
<stop stop-color="#20BEE1"/>
<stop offset="1" stop-color="#0088CC"/>
</linearGradient>
</defs>
</svg>
