<svg width="66" height="75" viewBox="0 0 66 75" fill="none" xmlns="http://www.w3.org/2000/svg">
<path d="M30.4485 1.7388C32.1513 0.753735 34.2494 0.753735 35.9523 1.7388L62.6489 17.1817C64.3517 18.1668 65.4004 19.9873 65.4004 21.9574V52.8432C65.4004 54.8134 64.3517 56.6338 62.6489 57.6189L35.9523 73.0619C34.2494 74.0467 32.1513 74.0467 30.4485 73.0619L3.75192 57.6189C2.04903 56.6338 1 54.8134 1 52.8432V21.9574C1 19.9873 2.04903 18.1668 3.75192 17.1817L30.4485 1.7388Z" stroke="url(#paint0_linear_568_3037)" stroke-opacity="0.2" stroke-width="0.560004"/>
<path opacity="0.7" d="M30.7561 8.45278C32.4416 7.47538 34.5181 7.47538 36.2036 8.45278L57.0763 20.5571C58.7617 21.5345 59.8 23.3408 59.8 25.2956V49.5042C59.8 51.459 58.7617 53.2654 57.0763 54.2428L36.2036 66.3471C34.5181 67.3245 32.4416 67.3245 30.7561 66.3471L9.88338 54.2428C8.19794 53.2654 7.15967 51.459 7.15967 49.5042V25.2956C7.15967 23.3408 8.19794 21.5345 9.88338 20.5571L30.7561 8.45278Z" fill="#121212" stroke="url(#paint1_linear_568_3037)" stroke-width="0.560004"/>
<path d="M30.6367 14.0056C32.2231 13.0906 34.1775 13.0906 35.7638 14.0056L52.1969 23.4845C53.7832 24.3995 54.7604 26.0905 54.7604 27.9206V46.8783C54.7604 48.7084 53.7832 50.3995 52.1969 51.3145L35.7638 60.7934C34.1775 61.7084 32.2231 61.7084 30.6367 60.7934L14.2037 51.3145C12.6174 50.3995 11.6401 48.7084 11.6401 46.8783V27.9206C11.6401 26.0905 12.6174 24.3995 14.2037 23.4845L30.6367 14.0056Z" fill="url(#paint2_linear_568_3037)" fill-opacity="0.06" stroke="url(#paint3_linear_568_3037)" stroke-width="1.12001"/>
<mask id="mask0_568_3037" style="mask-type:alpha" maskUnits="userSpaceOnUse" x="21" y="25" width="22" height="22">
<rect x="21.1602" y="25.0801" width="21.2801" height="21.2801" fill="#D9D9D9"/>
</mask>
<g mask="url(#mask0_568_3037)">
<path d="M37.12 44.587C36.3811 44.587 35.7531 44.3284 35.2359 43.8111C34.7186 43.2939 34.46 42.6658 34.46 41.927C34.46 41.8235 34.4674 41.7164 34.4822 41.6055C34.497 41.4947 34.5191 41.395 34.5487 41.3063L28.2976 37.6709C28.0464 37.8926 27.7656 38.0662 27.4553 38.1918C27.145 38.3175 26.8199 38.3803 26.48 38.3803C25.7411 38.3803 25.113 38.1216 24.5958 37.6044C24.0786 37.0872 23.8199 36.4591 23.8199 35.7202C23.8199 34.9813 24.0786 34.3533 24.5958 33.8361C25.113 33.3188 25.7411 33.0602 26.48 33.0602C26.8199 33.0602 27.145 33.123 27.4553 33.2486C27.7656 33.3743 28.0464 33.5479 28.2976 33.7696L34.5487 30.1342C34.5191 30.0455 34.497 29.9458 34.4822 29.835C34.4674 29.7241 34.46 29.617 34.46 29.5135C34.46 28.7746 34.7186 28.1466 35.2359 27.6294C35.7531 27.1121 36.3811 26.8535 37.12 26.8535C37.8589 26.8535 38.487 27.1121 39.0042 27.6294C39.5214 28.1466 39.7801 28.7746 39.7801 29.5135C39.7801 30.2524 39.5214 30.8805 39.0042 31.3977C38.487 31.9149 37.8589 32.1736 37.12 32.1736C36.7801 32.1736 36.455 32.1107 36.1447 31.9851C35.8344 31.8595 35.5536 31.6859 35.3024 31.4642L29.0513 35.0996C29.0809 35.1882 29.103 35.288 29.1178 35.3988C29.1326 35.5097 29.14 35.6168 29.14 35.7202C29.14 35.8237 29.1326 35.9308 29.1178 36.0417C29.103 36.1525 29.0809 36.2522 29.0513 36.3409L35.3024 39.9763C35.5536 39.7546 35.8344 39.581 36.1447 39.4554C36.455 39.3297 36.7801 39.2669 37.12 39.2669C37.8589 39.2669 38.487 39.5255 39.0042 40.0428C39.5214 40.56 39.7801 41.1881 39.7801 41.927C39.7801 42.6658 39.5214 43.2939 39.0042 43.8111C38.487 44.3284 37.8589 44.587 37.12 44.587ZM37.12 30.4002C37.3713 30.4002 37.5818 30.3152 37.7518 30.1453C37.9217 29.9753 38.0067 29.7648 38.0067 29.5135C38.0067 29.2623 37.9217 29.0517 37.7518 28.8818C37.5818 28.7118 37.3713 28.6269 37.12 28.6269C36.8688 28.6269 36.6582 28.7118 36.4883 28.8818C36.3183 29.0517 36.2334 29.2623 36.2334 29.5135C36.2334 29.7648 36.3183 29.9753 36.4883 30.1453C36.6582 30.3152 36.8688 30.4002 37.12 30.4002ZM26.48 36.6069C26.7312 36.6069 26.9418 36.5219 27.1117 36.352C27.2817 36.1821 27.3666 35.9715 27.3666 35.7202C27.3666 35.469 27.2817 35.2584 27.1117 35.0885C26.9418 34.9185 26.7312 34.8336 26.48 34.8336C26.2287 34.8336 26.0182 34.9185 25.8482 35.0885C25.6783 35.2584 25.5933 35.469 25.5933 35.7202C25.5933 35.9715 25.6783 36.1821 25.8482 36.352C26.0182 36.5219 26.2287 36.6069 26.48 36.6069ZM37.12 42.8136C37.3713 42.8136 37.5818 42.7287 37.7518 42.5587C37.9217 42.3888 38.0067 42.1782 38.0067 41.927C38.0067 41.6757 37.9217 41.4651 37.7518 41.2952C37.5818 41.1253 37.3713 41.0403 37.12 41.0403C36.8688 41.0403 36.6582 41.1253 36.4883 41.2952C36.3183 41.4651 36.2334 41.6757 36.2334 41.927C36.2334 42.1782 36.3183 42.3888 36.4883 42.5587C36.6582 42.7287 36.8688 42.8136 37.12 42.8136Z" fill="url(#paint4_linear_568_3037)"/>
</g>
<defs>
<linearGradient id="paint0_linear_568_3037" x1="33.2004" y1="-0.227516" x2="70.5747" y2="0.0652992" gradientUnits="userSpaceOnUse">
<stop stop-color="#0088CC"/>
<stop offset="1" stop-color="#20BEE1"/>
</linearGradient>
<linearGradient id="paint1_linear_568_3037" x1="33.4799" y1="6.50173" x2="64.0935" y2="6.74098" gradientUnits="userSpaceOnUse">
<stop stop-color="#0088CC"/>
<stop offset="1" stop-color="#20BEE1"/>
</linearGradient>
<linearGradient id="paint2_linear_568_3037" x1="27.4323" y1="15.3092" x2="43.1085" y2="58.8587" gradientUnits="userSpaceOnUse">
<stop stop-color="white"/>
<stop offset="1" stop-color="white" stop-opacity="0"/>
</linearGradient>
<linearGradient id="paint3_linear_568_3037" x1="33.2003" y1="11.7876" x2="58.7122" y2="11.9881" gradientUnits="userSpaceOnUse">
<stop stop-color="#0088CC"/>
<stop offset="1" stop-color="#20BEE1"/>
</linearGradient>
<linearGradient id="paint4_linear_568_3037" x1="23.9705" y1="35.7201" x2="39.6295" y2="35.7201" gradientUnits="userSpaceOnUse">
<stop stop-color="#20BEE1"/>
<stop offset="1" stop-color="#0088CC"/>
</linearGradient>
</defs>
</svg>
