<svg width="17" height="17" viewBox="0 0 17 17" fill="none" xmlns="http://www.w3.org/2000/svg">
<path d="M8.6268 16.1891C13.0339 16.1891 16.6066 12.6165 16.6066 8.20932C16.6066 3.80218 13.0339 0.229492 8.6268 0.229492C4.21966 0.229492 0.646973 3.80218 0.646973 8.20932C0.646973 12.6165 4.21966 16.1891 8.6268 16.1891Z" fill="#FEDA2C"/>
<path d="M8.62657 14.3607C12.0239 14.3607 14.778 11.6066 14.778 8.20921C14.778 4.81185 12.0239 2.05774 8.62657 2.05774C5.2292 2.05774 2.4751 4.81185 2.4751 8.20921C2.4751 11.6066 5.2292 14.3607 8.62657 14.3607Z" fill="#FCAA17"/>
<path d="M8.62683 3.48218L10.0258 6.31684L13.1539 6.77141L10.8904 8.9779L11.4248 12.0934L8.62683 10.6224L5.82885 12.0934L6.36322 8.9779L4.09961 6.77141L7.22784 6.31684L8.62683 3.48218Z" fill="#FEDA2C"/>
</svg>
