<svg width="66" height="75" viewBox="0 0 66 75" fill="none" xmlns="http://www.w3.org/2000/svg">
<path d="M30.3568 1.73879C32.0544 0.753736 34.1459 0.753736 35.8435 1.73879L62.457 17.1816C64.1546 18.1667 65.2 19.9871 65.2 21.9573V52.8429C65.2 54.813 64.1546 56.6335 62.457 57.6185L35.8435 73.0614C34.1459 74.0462 32.0544 74.0462 30.3568 73.0614L3.74335 57.6185C2.04576 56.6335 1 54.813 1 52.8429V21.9573C1 19.9871 2.04576 18.1667 3.74335 17.1816L30.3568 1.73879Z" stroke="url(#paint0_linear_568_3159)" stroke-opacity="0.2"/>
<path opacity="0.7" d="M30.6637 8.45302C32.3438 7.47562 34.4139 7.47562 36.0941 8.45302L56.9019 20.5572C58.5821 21.5346 59.6171 23.3409 59.6171 25.2958V49.5042C59.6171 51.459 58.5821 53.2653 56.9019 54.2427L36.0941 66.3469C34.4139 67.3243 32.3438 67.3243 30.6637 66.3469L9.85586 54.2427C8.17567 53.2653 7.14062 51.459 7.14062 49.5042V25.2958C7.14062 23.3409 8.17567 21.5346 9.85586 20.5572L30.6637 8.45302Z" fill="#121212" stroke="url(#paint1_linear_568_3159)"/>
<path d="M30.5444 14.0063C32.1258 13.0913 34.0742 13.0913 35.6556 14.0063L52.0374 23.4852C53.6188 24.4002 54.593 26.0912 54.593 27.9213V46.8788C54.593 48.7089 53.6188 50.4 52.0374 51.315L35.6556 60.7938C34.0742 61.7088 32.1258 61.7088 30.5444 60.7938L14.1625 51.315C12.5811 50.4 11.6069 48.7089 11.6069 46.8788V27.9213C11.6069 26.0912 12.5811 24.4002 14.1625 23.4852L30.5444 14.0063Z" fill="url(#paint2_linear_568_3159)" fill-opacity="0.06" stroke="url(#paint3_linear_568_3159)" stroke-width="2"/>
<mask id="mask0_568_3159" style="mask-type:alpha" maskUnits="userSpaceOnUse" x="22" y="26" width="22" height="23">
<rect x="22.2139" y="26.2" width="21.7722" height="21.84" fill="#D9D9D9"/>
</mask>
<g mask="url(#mask0_568_3159)">
<path d="M31.7394 39.8498H34.4609L33.9393 36.915C34.2417 36.7634 34.4798 36.5434 34.6537 36.2553C34.8276 35.9671 34.9145 35.6486 34.9145 35.2998C34.9145 34.7993 34.7369 34.3708 34.3815 34.0144C34.0262 33.658 33.5991 33.4798 33.1002 33.4798C32.6012 33.4798 32.1741 33.658 31.8188 34.0144C31.4635 34.3708 31.2858 34.7993 31.2858 35.2998C31.2858 35.6486 31.3728 35.9671 31.5466 36.2553C31.7205 36.5434 31.9586 36.7634 32.261 36.915L31.7394 39.8498ZM33.1002 46.2198C30.9985 45.6889 29.2636 44.4794 27.8953 42.5912C26.5269 40.7029 25.8428 38.6061 25.8428 36.3008V30.7498L33.1002 28.0198L40.3576 30.7498V36.3008C40.3576 38.6061 39.6734 40.7029 38.3051 42.5912C36.9368 44.4794 35.2018 45.6889 33.1002 46.2198ZM33.1002 44.3088C34.6726 43.8083 35.9729 42.8073 37.001 41.3058C38.0291 39.8043 38.5432 38.1359 38.5432 36.3008V32.001L33.1002 29.9535L27.6571 32.001V36.3008C27.6571 38.1359 28.1712 39.8043 29.1993 41.3058C30.2274 42.8073 31.5277 43.8083 33.1002 44.3088Z" fill="url(#paint4_linear_568_3159)"/>
</g>
<defs>
<linearGradient id="paint0_linear_568_3159" x1="33.1001" y1="-0.227507" x2="70.3582" y2="0.0634897" gradientUnits="userSpaceOnUse">
<stop stop-color="#AB9236"/>
<stop offset="1" stop-color="#DFC960"/>
</linearGradient>
<linearGradient id="paint1_linear_568_3159" x1="33.3789" y1="6.50198" x2="63.8972" y2="6.73974" gradientUnits="userSpaceOnUse">
<stop stop-color="#AB9236"/>
<stop offset="1" stop-color="#DFC960"/>
</linearGradient>
<linearGradient id="paint2_linear_568_3159" x1="27.3499" y1="15.3099" x2="43.0636" y2="58.828" gradientUnits="userSpaceOnUse">
<stop stop-color="white"/>
<stop offset="1" stop-color="white" stop-opacity="0"/>
</linearGradient>
<linearGradient id="paint3_linear_568_3159" x1="33.1" y1="11.7884" x2="58.5325" y2="11.9876" gradientUnits="userSpaceOnUse">
<stop stop-color="#AB9236"/>
<stop offset="1" stop-color="#DFC960"/>
</linearGradient>
<linearGradient id="paint4_linear_568_3159" x1="25.616" y1="37.8021" x2="40.5844" y2="37.8021" gradientUnits="userSpaceOnUse">
<stop stop-color="#AB9236"/>
<stop offset="1" stop-color="#DFC960"/>
</linearGradient>
</defs>
</svg>
