<svg width="117" height="132" viewBox="0 0 117 132" fill="none" xmlns="http://www.w3.org/2000/svg">
<path d="M53.5862 2.31927C56.627 0.560244 60.3735 0.560244 63.4144 2.31927L111.086 29.8957C114.127 31.6548 116 34.9056 116 38.4237V93.5765C116 97.0946 114.127 100.345 111.086 102.105L63.4144 129.681C60.3735 131.44 56.627 131.44 53.5862 129.681L5.91411 102.105C2.87325 100.345 1 97.0946 1 93.5765V38.4237C1 34.9056 2.87325 31.6548 5.91411 29.8957L53.5862 2.31927Z" stroke="url(#paint0_linear_2047_2157)" stroke-opacity="0.2"/>
<path opacity="0.7" d="M54.1363 14.309C57.1459 12.5637 60.8541 12.5637 63.8637 14.309L101.136 35.9237C104.146 37.669 106 40.8946 106 44.3854V87.6146C106 91.1054 104.146 94.3309 101.136 96.0763L63.8637 117.691C60.8541 119.436 57.1459 119.436 54.1363 117.691L16.8637 96.0763C13.854 94.3309 12 91.1054 12 87.6146V44.3854C12 40.8946 13.854 37.669 16.8637 35.9237L54.1363 14.309Z" fill="#121212" stroke="url(#paint1_linear_2047_2157)"/>
<path d="M53.9223 24.2255C56.755 22.5915 60.245 22.5915 63.0778 24.2255L92.4223 41.152C95.255 42.7859 97 45.8056 97 49.0736V82.9264C97 86.1944 95.255 89.2141 92.4223 90.8481L63.0778 107.774C60.245 109.409 56.755 109.409 53.9223 107.774L24.5777 90.8481C21.745 89.2141 20 86.1944 20 82.9264V49.0736C20 45.8056 21.745 42.7859 24.5777 41.152L53.9223 24.2255Z" fill="url(#paint2_linear_2047_2157)" fill-opacity="0.06" stroke="url(#paint3_linear_2047_2157)" stroke-width="2"/>
<path fill-rule="evenodd" clip-rule="evenodd" d="M59 52C60.5913 52 62.1174 52.6321 63.2426 53.7574C64.3679 54.8826 65 56.4087 65 58C65 59.5913 64.3679 61.1174 63.2426 62.2426C62.1174 63.3679 60.5913 64 59 64C57.4087 64 55.8826 63.3679 54.7574 62.2426C53.6321 61.1174 53 59.5913 53 58C53 56.4087 53.6321 54.8826 54.7574 53.7574C55.8826 52.6321 57.4087 52 59 52ZM68 58C68 55.6131 67.0518 53.3239 65.364 51.636C63.6761 49.9482 61.3869 49 59 49C56.6131 49 54.3239 49.9482 52.636 51.636C50.9482 53.3239 50 55.6131 50 58C50 60.3869 50.9482 62.6761 52.636 64.364C54.3239 66.0518 56.6131 67 59 67C61.3869 67 63.6761 66.0518 65.364 64.364C67.0518 62.6761 68 60.3869 68 58ZM68.2805 70.9255C65.8355 69.3955 62.5505 68.5 59 68.5C55.4495 68.5 52.1645 69.397 49.7195 70.9255C47.2955 72.4405 45.5 74.725 45.5 77.5C45.5 77.8978 45.658 78.2794 45.9393 78.5607C46.2206 78.842 46.6022 79 47 79C47.3978 79 47.7794 78.842 48.0607 78.5607C48.342 78.2794 48.5 77.8978 48.5 77.5C48.5 76.1335 49.391 74.668 51.3095 73.468C53.207 72.2845 55.922 71.5 59 71.5C62.078 71.5 64.793 72.283 66.6905 73.4695C68.6105 74.6665 69.5 76.132 69.5 77.5C69.5 77.8978 69.658 78.2794 69.9393 78.5607C70.2206 78.842 70.6022 79 71 79C71.3978 79 71.7794 78.842 72.0607 78.5607C72.342 78.2794 72.5 77.8978 72.5 77.5C72.5 74.725 70.7045 72.4405 68.2805 70.9255Z" fill="url(#paint4_linear_2047_2157)"/>
<defs>
<linearGradient id="paint0_linear_2047_2157" x1="58.5003" y1="-1.19198" x2="125.24" y2="-0.669097" gradientUnits="userSpaceOnUse">
<stop stop-color="#DC3400"/>
<stop offset="1" stop-color="#DC5C00"/>
</linearGradient>
<linearGradient id="paint1_linear_2047_2157" x1="59" y1="10.825" x2="113.667" y2="11.2522" gradientUnits="userSpaceOnUse">
<stop stop-color="#DC3400"/>
<stop offset="1" stop-color="#DC5C00"/>
</linearGradient>
<linearGradient id="paint2_linear_2047_2157" x1="48.2001" y1="26.5533" x2="76.1931" y2="104.32" gradientUnits="userSpaceOnUse">
<stop stop-color="white"/>
<stop offset="1" stop-color="white" stop-opacity="0"/>
</linearGradient>
<linearGradient id="paint3_linear_2047_2157" x1="58.5" y1="20.2648" x2="104.057" y2="20.6228" gradientUnits="userSpaceOnUse">
<stop stop-color="#DC3400"/>
<stop offset="1" stop-color="#DC5C00"/>
</linearGradient>
<linearGradient id="paint4_linear_2047_2157" x1="45.5" y1="64" x2="72.5" y2="64" gradientUnits="userSpaceOnUse">
<stop stop-color="#DC5C00"/>
<stop offset="1" stop-color="#DC3400"/>
</linearGradient>
</defs>
</svg>
