<svg width="17" height="14" viewBox="0 0 17 14" fill="none" xmlns="http://www.w3.org/2000/svg">
<path d="M1.8179 9.71626C1.1714 8.87635 0.848145 8.45639 0.848145 7.20939C0.848145 5.96239 1.1714 5.54243 1.8179 4.70252C3.10879 3.02545 5.27373 1.12415 8.4547 1.12415C11.6357 1.12415 13.8006 3.02545 15.0915 4.70252C15.738 5.54243 16.0613 5.96239 16.0613 7.20939C16.0613 8.45639 15.738 8.87635 15.0915 9.71626C13.8006 11.3933 11.6357 13.2946 8.4547 13.2946C5.27373 13.2946 3.10879 11.3933 1.8179 9.71626Z" stroke="#F8F8F8" stroke-width="1.14098"/>
<path d="M10.7368 7.20934C10.7368 8.46963 9.71511 9.4913 8.45482 9.4913C7.19452 9.4913 6.17285 8.46963 6.17285 7.20934C6.17285 5.94904 7.19452 4.92737 8.45482 4.92737C9.71511 4.92737 10.7368 5.94904 10.7368 7.20934Z" stroke="#F8F8F8" stroke-width="1.14098"/>
</svg>
