<svg width="17" height="16" viewBox="0 0 17 16" fill="none" xmlns="http://www.w3.org/2000/svg">
<path d="M5.7869 1.41396C6.63003 1.74501 7.44715 2.18407 8.21426 2.71815C8.30027 2.77816 8.40029 2.80817 8.5003 2.80817C8.60032 2.80817 8.70033 2.77816 8.78635 2.71815C9.55446 2.18307 10.3716 1.74401 11.2137 1.41296C11.4057 1.33795 11.5318 1.15192 11.5308 0.94489C11.5298 0.737859 11.4017 0.553832 11.2087 0.480821C9.52245 -0.160274 7.47715 -0.160274 5.7919 0.480821C5.59987 0.553832 5.47085 0.738859 5.46985 0.94489C5.46885 1.15092 5.59487 1.33795 5.7869 1.41396Z" fill="white"/>
<path d="M13.0336 1.41581C12.8746 1.30679 12.6696 1.29779 12.5006 1.39481C11.5674 1.93289 10.6613 2.54898 9.80916 3.22708C9.69614 3.31709 9.62713 3.45111 9.62113 3.59613C9.61413 3.74115 9.67114 3.88117 9.77515 3.98019C11.5434 5.66544 13.9958 10.8302 14.5569 13.2076C13.3367 11.1452 10.6193 6.29153 8.84001 4.63228C8.64898 4.45326 8.34994 4.45326 8.15791 4.63228C6.37665 6.29253 3.66725 11.1502 2.44707 13.2136C3.00815 10.8372 5.45351 5.66644 7.22277 3.98019C7.32779 3.88017 7.3838 3.74015 7.3778 3.59613C7.3718 3.45211 7.30379 3.31709 7.19077 3.22708C6.33764 2.54898 5.43251 1.93289 4.49937 1.39481C4.33235 1.29879 4.12532 1.30779 3.96529 1.41581C1.79497 2.91203 0.498779 5.37239 0.498779 7.99878C0.498779 9.91807 1.18888 11.7683 2.44807 13.2136C3.95329 14.9838 6.15862 16 8.49996 16C10.8413 16 13.0466 14.9838 14.5579 13.2076C15.811 11.7693 16.5011 9.91907 16.5011 7.99878C16.5011 5.37239 15.205 2.91203 13.0336 1.41581Z" fill="white"/>
</svg>
